<?xml version="1.0" encoding="UTF-8" standalone="no"?>
<!DOCTYPE svg PUBLIC "-//W3C//DTD SVG 1.1//EN"
 "http://www.w3.org/Graphics/SVG/1.1/DTD/svg11.dtd">
<!-- Generated by graphviz version 14.0.2 (20251019.1705)
 -->
<!-- Title: VOWL Pages: 1 -->
<svg width="762pt" height="962pt"
 viewBox="0.00 0.00 762.00 962.00" xmlns="http://www.w3.org/2000/svg" xmlns:xlink="http://www.w3.org/1999/xlink">
<g id="graph0" class="graph" transform="scale(1 1) rotate(0) translate(4 957.73)">
<title>VOWL</title>
<polygon fill="white" stroke="none" points="-4,4 -4,-957.73 757.94,-957.73 757.94,4 -4,4"/>
<!-- Place -->
<g id="node1" class="node">
<title>Place</title>
<ellipse fill="#afcbec" stroke="black" stroke-width="0.8" cx="469.96" cy="-438.53" rx="41.4" ry="41.4"/>
<text xml:space="preserve" text-anchor="middle" x="469.96" y="-443.83" font-family="PingFang SC" font-size="11.00">地点</text>
<text xml:space="preserve" text-anchor="middle" x="469.96" y="-428.08" font-family="PingFang SC" font-size="11.00">Place</text>
</g>
<!-- op9 -->
<g id="node18" class="node">
<title>op9</title>
<polygon fill="#a9c7f0" stroke="black" stroke-width="0.8" points="439.77,-535.5 383.27,-535.5 383.27,-514 439.77,-514 439.77,-535.5"/>
<text xml:space="preserve" text-anchor="middle" x="411.52" y="-522.95" font-family="PingFang SC" font-size="9.00">locatedAt</text>
</g>
<!-- Place&#45;&gt;op9 -->
<g id="edge19" class="edge">
<title>Place&#45;&gt;op9</title>
<path fill="none" stroke="#555555" d="M446.52,-473.1C436.62,-487.72 425.79,-503.7 418.84,-513.95"/>
</g>
<!-- dp6 -->
<g id="node34" class="node">
<title>dp6</title>
<polygon fill="#9bcb6a" stroke="black" stroke-width="0.8" points="581.43,-395.94 527.43,-395.94 527.43,-374.44 581.43,-374.44 581.43,-395.94"/>
<text xml:space="preserve" text-anchor="middle" x="554.43" y="-383.39" font-family="PingFang SC" font-size="9.00">名称</text>
</g>
<!-- Place&#45;&gt;dp6 -->
<g id="edge39" class="edge">
<title>Place&#45;&gt;dp6</title>
<path fill="none" stroke="#555555" d="M505.29,-416.22C516.32,-409.25 528,-401.88 537.2,-396.07"/>
</g>
<!-- dp7 -->
<g id="node36" class="node">
<title>dp7</title>
<polygon fill="#9bcb6a" stroke="black" stroke-width="0.8" points="597.6,-439.72 537.35,-439.72 537.35,-418.22 597.6,-418.22 597.6,-439.72"/>
<text xml:space="preserve" text-anchor="middle" x="567.47" y="-427.17" font-family="PingFang SC" font-size="9.00">hasDistrict</text>
</g>
<!-- Place&#45;&gt;dp7 -->
<g id="edge41" class="edge">
<title>Place&#45;&gt;dp7</title>
<path fill="none" stroke="#555555" d="M511.31,-434.47C519.93,-433.63 528.86,-432.75 537,-431.96"/>
</g>
<!-- dp8 -->
<g id="node38" class="node">
<title>dp8</title>
<polygon fill="#9bcb6a" stroke="black" stroke-width="0.8" points="581.38,-487.51 527.38,-487.51 527.38,-466.01 581.38,-466.01 581.38,-487.51"/>
<text xml:space="preserve" text-anchor="middle" x="554.38" y="-474.96" font-family="PingFang SC" font-size="9.00">乡镇</text>
</g>
<!-- Place&#45;&gt;dp8 -->
<g id="edge43" class="edge">
<title>Place&#45;&gt;dp8</title>
<path fill="none" stroke="#555555" d="M507.72,-455.63C515.27,-459.05 523.02,-462.56 529.97,-465.71"/>
</g>
<!-- CulturalLandscapeUnit -->
<g id="node2" class="node">
<title>CulturalLandscapeUnit</title>
<ellipse fill="#afcbec" stroke="black" stroke-width="0.8" cx="520.81" cy="-625.02" rx="41.4" ry="41.4"/>
<text xml:space="preserve" text-anchor="middle" x="520.81" y="-630.32" font-family="PingFang SC" font-size="11.00">文化景观单元</text>
<text xml:space="preserve" text-anchor="middle" x="520.81" y="-614.57" font-family="PingFang SC" font-size="11.00">CulturalLandscapeUnit</text>
</g>
<!-- op0 -->
<g id="node9" class="node">
<title>op0</title>
<polygon fill="#a9c7f0" stroke="black" stroke-width="0.8" points="549.59,-545.66 473.59,-545.66 473.59,-524.16 549.59,-524.16 549.59,-545.66"/>
<text xml:space="preserve" text-anchor="middle" x="511.59" y="-533.11" font-family="PingFang SC" font-size="9.00">containsPlace</text>
</g>
<!-- CulturalLandscapeUnit&#45;&gt;op0 -->
<g id="edge1" class="edge">
<title>CulturalLandscapeUnit&#45;&gt;op0</title>
<path fill="none" stroke="#555555" d="M516.57,-583.65C515.15,-569.78 513.69,-555.43 512.71,-545.92"/>
</g>
<!-- op12 -->
<g id="node21" class="node">
<title>op12</title>
<polygon fill="#a9c7f0" stroke="black" stroke-width="0.8" points="450.41,-657.96 393.91,-657.96 393.91,-636.46 450.41,-636.46 450.41,-657.96"/>
<text xml:space="preserve" text-anchor="middle" x="422.16" y="-645.41" font-family="PingFang SC" font-size="9.00">locatedAt</text>
</g>
<!-- CulturalLandscapeUnit&#45;&gt;op12 -->
<g id="edge25" class="edge">
<title>CulturalLandscapeUnit&#45;&gt;op12</title>
<path fill="none" stroke="#555555" d="M480.12,-634.17C470.24,-636.39 459.9,-638.72 450.72,-640.79"/>
</g>
<!-- dp0 -->
<g id="node22" class="node">
<title>dp0</title>
<polygon fill="#9bcb6a" stroke="black" stroke-width="0.8" points="621.62,-703.98 567.62,-703.98 567.62,-682.48 621.62,-682.48 621.62,-703.98"/>
<text xml:space="preserve" text-anchor="middle" x="594.62" y="-691.43" font-family="PingFang SC" font-size="9.00">调查日期</text>
</g>
<!-- CulturalLandscapeUnit&#45;&gt;dp0 -->
<g id="edge27" class="edge">
<title>CulturalLandscapeUnit&#45;&gt;dp0</title>
<path fill="none" stroke="#555555" d="M551.25,-653.15C562.37,-663.43 574.3,-674.45 582.82,-682.33"/>
</g>
<!-- dp1 -->
<g id="node24" class="node">
<title>dp1</title>
<polygon fill="#9bcb6a" stroke="black" stroke-width="0.8" points="662,-643.99 608,-643.99 608,-622.49 662,-622.49 662,-643.99"/>
<text xml:space="preserve" text-anchor="middle" x="635" y="-631.44" font-family="PingFang SC" font-size="9.00">类型</text>
</g>
<!-- CulturalLandscapeUnit&#45;&gt;dp1 -->
<g id="edge29" class="edge">
<title>CulturalLandscapeUnit&#45;&gt;dp1</title>
<path fill="none" stroke="#555555" d="M562.36,-628.01C577.53,-629.1 594.3,-630.31 607.89,-631.29"/>
</g>
<!-- dp2 -->
<g id="node26" class="node">
<title>dp2</title>
<polygon fill="#9bcb6a" stroke="black" stroke-width="0.8" points="551.52,-737.13 497.52,-737.13 497.52,-715.63 551.52,-715.63 551.52,-737.13"/>
<text xml:space="preserve" text-anchor="middle" x="524.52" y="-724.58" font-family="PingFang SC" font-size="9.00">名称</text>
</g>
<!-- CulturalLandscapeUnit&#45;&gt;dp2 -->
<g id="edge31" class="edge">
<title>CulturalLandscapeUnit&#45;&gt;dp2</title>
<path fill="none" stroke="#555555" d="M522.33,-666.54C522.98,-684.25 523.68,-703.51 524.11,-715.27"/>
</g>
<!-- Actor -->
<g id="node3" class="node">
<title>Actor</title>
<ellipse fill="#afcbec" stroke="black" stroke-width="0.8" cx="290.66" cy="-194.63" rx="41.4" ry="41.4"/>
<text xml:space="preserve" text-anchor="middle" x="290.66" y="-199.93" font-family="PingFang SC" font-size="11.00">行动者</text>
<text xml:space="preserve" text-anchor="middle" x="290.66" y="-184.18" font-family="PingFang SC" font-size="11.00">Actor</text>
</g>
<!-- dp9 -->
<g id="node40" class="node">
<title>dp9</title>
<polygon fill="#9bcb6a" stroke="black" stroke-width="0.8" points="249.34,-123.05 195.34,-123.05 195.34,-101.55 249.34,-101.55 249.34,-123.05"/>
<text xml:space="preserve" text-anchor="middle" x="222.34" y="-110.5" font-family="PingFang SC" font-size="9.00">名称</text>
</g>
<!-- Actor&#45;&gt;dp9 -->
<g id="edge45" class="edge">
<title>Actor&#45;&gt;dp9</title>
<path fill="none" stroke="#555555" d="M264.05,-162.56C252.51,-148.66 239.76,-133.29 231.43,-123.26"/>
</g>
<!-- Document -->
<g id="node4" class="node">
<title>Document</title>
<ellipse fill="#afcbec" stroke="black" stroke-width="0.8" cx="245.43" cy="-388.47" rx="41.4" ry="41.4"/>
<text xml:space="preserve" text-anchor="middle" x="245.43" y="-393.77" font-family="PingFang SC" font-size="11.00">文档</text>
<text xml:space="preserve" text-anchor="middle" x="245.43" y="-378.02" font-family="PingFang SC" font-size="11.00">Document</text>
</g>
<!-- op1 -->
<g id="node10" class="node">
<title>op1</title>
<polygon fill="#a9c7f0" stroke="black" stroke-width="0.8" points="421.21,-381.09 318.96,-381.09 318.96,-359.59 421.21,-359.59 421.21,-381.09"/>
<text xml:space="preserve" text-anchor="middle" x="370.09" y="-368.54" font-family="PingFang SC" font-size="9.00">hasDestinationPlace</text>
</g>
<!-- Document&#45;&gt;op1 -->
<g id="edge3" class="edge">
<title>Document&#45;&gt;op1</title>
<path fill="none" stroke="#555555" d="M286.59,-382.48C296.95,-380.97 308.19,-379.34 318.96,-377.77"/>
</g>
<!-- op2 -->
<g id="node11" class="node">
<title>op2</title>
<polygon fill="#a9c7f0" stroke="black" stroke-width="0.8" points="401.65,-418.93 321.9,-418.93 321.9,-397.43 401.65,-397.43 401.65,-418.93"/>
<text xml:space="preserve" text-anchor="middle" x="361.78" y="-406.38" font-family="PingFang SC" font-size="9.00">hasOriginPlace</text>
</g>
<!-- Document&#45;&gt;op2 -->
<g id="edge5" class="edge">
<title>Document&#45;&gt;op2</title>
<path fill="none" stroke="#555555" d="M286.45,-395.42C297.84,-397.34 310.18,-399.44 321.52,-401.36"/>
</g>
<!-- op3 -->
<g id="node12" class="node">
<title>op3</title>
<polygon fill="#a9c7f0" stroke="black" stroke-width="0.8" points="341.88,-310.18 271.13,-310.18 271.13,-288.68 341.88,-288.68 341.88,-310.18"/>
<text xml:space="preserve" text-anchor="middle" x="306.51" y="-297.63" font-family="PingFang SC" font-size="9.00">hasRecipient</text>
</g>
<!-- Document&#45;&gt;op3 -->
<g id="edge7" class="edge">
<title>Document&#45;&gt;op3</title>
<path fill="none" stroke="#555555" d="M269.04,-354.04C279.65,-338.58 291.44,-321.4 298.9,-310.52"/>
</g>
<!-- op4 -->
<g id="node13" class="node">
<title>op4</title>
<polygon fill="#a9c7f0" stroke="black" stroke-width="0.8" points="255.05,-294.45 194.05,-294.45 194.05,-272.95 255.05,-272.95 255.05,-294.45"/>
<text xml:space="preserve" text-anchor="middle" x="224.55" y="-281.9" font-family="PingFang SC" font-size="9.00">hasSender</text>
</g>
<!-- Document&#45;&gt;op4 -->
<g id="edge9" class="edge">
<title>Document&#45;&gt;op4</title>
<path fill="none" stroke="#555555" d="M237.3,-347.66C233.5,-328.59 229.26,-307.36 226.76,-294.78"/>
</g>
<!-- op5 -->
<g id="node14" class="node">
<title>op5</title>
<polygon fill="#a9c7f0" stroke="black" stroke-width="0.8" points="405.18,-456.67 302.93,-456.67 302.93,-435.17 405.18,-435.17 405.18,-456.67"/>
<text xml:space="preserve" text-anchor="middle" x="354.05" y="-444.12" font-family="PingFang SC" font-size="9.00">mentionsPlaceEntity</text>
</g>
<!-- Document&#45;&gt;op5 -->
<g id="edge11" class="edge">
<title>Document&#45;&gt;op5</title>
<path fill="none" stroke="#555555" d="M282.21,-407.92C299.19,-416.9 318.74,-427.25 333.16,-434.87"/>
</g>
<!-- op11 -->
<g id="node20" class="node">
<title>op11</title>
<polygon fill="#a9c7f0" stroke="black" stroke-width="0.8" points="285.4,-518.52 228.9,-518.52 228.9,-497.02 285.4,-497.02 285.4,-518.52"/>
<text xml:space="preserve" text-anchor="middle" x="257.15" y="-505.97" font-family="PingFang SC" font-size="9.00">locatedAt</text>
</g>
<!-- Document&#45;&gt;op11 -->
<g id="edge23" class="edge">
<title>Document&#45;&gt;op11</title>
<path fill="none" stroke="#555555" d="M249.5,-429.86C251.82,-453.55 254.57,-481.49 256.05,-496.64"/>
</g>
<!-- dp10 -->
<g id="node42" class="node">
<title>dp10</title>
<polygon fill="#9bcb6a" stroke="black" stroke-width="0.8" points="176.83,-403.06 122.83,-403.06 122.83,-381.56 176.83,-381.56 176.83,-403.06"/>
<text xml:space="preserve" text-anchor="middle" x="149.83" y="-390.51" font-family="PingFang SC" font-size="9.00">标题</text>
</g>
<!-- Document&#45;&gt;dp10 -->
<g id="edge47" class="edge">
<title>Document&#45;&gt;dp10</title>
<path fill="none" stroke="#555555" d="M203.78,-390.14C194.72,-390.5 185.36,-390.88 177.04,-391.21"/>
</g>
<!-- dp11 -->
<g id="node44" class="node">
<title>dp11</title>
<polygon fill="#9bcb6a" stroke="black" stroke-width="0.8" points="187.99,-453.61 133.99,-453.61 133.99,-432.11 187.99,-432.11 187.99,-453.61"/>
<text xml:space="preserve" text-anchor="middle" x="160.99" y="-441.06" font-family="PingFang SC" font-size="9.00">馆藏号</text>
</g>
<!-- Document&#45;&gt;dp11 -->
<g id="edge49" class="edge">
<title>Document&#45;&gt;dp11</title>
<path fill="none" stroke="#555555" d="M210.6,-410.9C199.33,-418.16 187.34,-425.88 177.97,-431.92"/>
</g>
<!-- dp12 -->
<g id="node46" class="node">
<title>dp12</title>
<polygon fill="#9bcb6a" stroke="black" stroke-width="0.8" points="187.99,-349.6 129.99,-349.6 129.99,-328.1 187.99,-328.1 187.99,-349.6"/>
<text xml:space="preserve" text-anchor="middle" x="158.99" y="-337.05" font-family="PingFang SC" font-size="9.00">金额(侨批)</text>
</g>
<!-- Document&#45;&gt;dp12 -->
<g id="edge51" class="edge">
<title>Document&#45;&gt;dp12</title>
<path fill="none" stroke="#555555" d="M209.27,-367.71C198.54,-361.55 187.21,-355.05 178.03,-349.77"/>
</g>
<!-- Event -->
<g id="node5" class="node">
<title>Event</title>
<ellipse fill="#afcbec" stroke="black" stroke-width="0.8" cx="487.59" cy="-213.3" rx="41.4" ry="41.4"/>
<text xml:space="preserve" text-anchor="middle" x="487.59" y="-218.6" font-family="PingFang SC" font-size="11.00">事件</text>
<text xml:space="preserve" text-anchor="middle" x="487.59" y="-202.85" font-family="PingFang SC" font-size="11.00">Event</text>
</g>
<!-- op6 -->
<g id="node15" class="node">
<title>op6</title>
<polygon fill="#a9c7f0" stroke="black" stroke-width="0.8" points="418.84,-165.39 348.09,-165.39 348.09,-143.89 418.84,-143.89 418.84,-165.39"/>
<text xml:space="preserve" text-anchor="middle" x="383.46" y="-152.84" font-family="PingFang SC" font-size="9.00">carriedOutBy</text>
</g>
<!-- Event&#45;&gt;op6 -->
<g id="edge13" class="edge">
<title>Event&#45;&gt;op6</title>
<path fill="none" stroke="#555555" d="M453.28,-189.67C446.88,-185.57 440.17,-181.48 433.72,-177.89 425.99,-173.59 417.32,-169.38 409.39,-165.75"/>
</g>
<!-- op7 -->
<g id="node16" class="node">
<title>op7</title>
<polygon fill="#a9c7f0" stroke="black" stroke-width="0.8" points="430.12,-202.99 350.37,-202.99 350.37,-181.49 430.12,-181.49 430.12,-202.99"/>
<text xml:space="preserve" text-anchor="middle" x="390.24" y="-190.44" font-family="PingFang SC" font-size="9.00">mentionsGroup</text>
</g>
<!-- Event&#45;&gt;op7 -->
<g id="edge15" class="edge">
<title>Event&#45;&gt;op7</title>
<path fill="none" stroke="#555555" d="M446.87,-204.49C441.45,-203.32 435.9,-202.12 430.49,-200.95"/>
</g>
<!-- op8 -->
<g id="node17" class="node">
<title>op8</title>
<polygon fill="#a9c7f0" stroke="black" stroke-width="0.8" points="522.27,-328.61 456.77,-328.61 456.77,-307.11 522.27,-307.11 522.27,-328.61"/>
<text xml:space="preserve" text-anchor="middle" x="489.52" y="-316.06" font-family="PingFang SC" font-size="9.00">tookPlaceIn</text>
</g>
<!-- Event&#45;&gt;op8 -->
<g id="edge17" class="edge">
<title>Event&#45;&gt;op8</title>
<path fill="none" stroke="#555555" d="M488.36,-254.92C488.7,-273.83 489.09,-294.68 489.32,-307"/>
</g>
<!-- dp13 -->
<g id="node48" class="node">
<title>dp13</title>
<polygon fill="#9bcb6a" stroke="black" stroke-width="0.8" points="503.6,-118.15 449.6,-118.15 449.6,-96.65 503.6,-96.65 503.6,-118.15"/>
<text xml:space="preserve" text-anchor="middle" x="476.6" y="-105.6" font-family="PingFang SC" font-size="9.00">描述</text>
</g>
<!-- Event&#45;&gt;dp13 -->
<g id="edge53" class="edge">
<title>Event&#45;&gt;dp13</title>
<path fill="none" stroke="#555555" d="M483.27,-171.75C481.28,-152.51 479.06,-131.16 477.75,-118.53"/>
</g>
<!-- dp14 -->
<g id="node50" class="node">
<title>dp14</title>
<polygon fill="#9bcb6a" stroke="black" stroke-width="0.8" points="589.21,-155.66 519.21,-155.66 519.21,-134.16 589.21,-134.16 589.21,-155.66"/>
<text xml:space="preserve" text-anchor="middle" x="554.21" y="-143.11" font-family="PingFang SC" font-size="9.00">原件题署日期</text>
</g>
<!-- Event&#45;&gt;dp14 -->
<g id="edge55" class="edge">
<title>Event&#45;&gt;dp14</title>
<path fill="none" stroke="#555555" d="M516.61,-183.5C526.15,-173.71 536.17,-163.43 543.46,-155.94"/>
</g>
<!-- dp15 -->
<g id="node52" class="node">
<title>dp15</title>
<polygon fill="#9bcb6a" stroke="black" stroke-width="0.8" points="619.68,-207.21 565.68,-207.21 565.68,-185.71 619.68,-185.71 619.68,-207.21"/>
<text xml:space="preserve" text-anchor="middle" x="592.68" y="-194.66" font-family="PingFang SC" font-size="9.00">章</text>
</g>
<!-- Event&#45;&gt;dp15 -->
<g id="edge57" class="edge">
<title>Event&#45;&gt;dp15</title>
<path fill="none" stroke="#555555" d="M528.82,-206.69C541.13,-204.72 554.3,-202.61 565.47,-200.82"/>
</g>
<!-- DigitalImage -->
<g id="node6" class="node">
<title>DigitalImage</title>
<ellipse fill="#afcbec" stroke="black" stroke-width="0.8" cx="215.45" cy="-751.57" rx="41.4" ry="41.4"/>
<text xml:space="preserve" text-anchor="middle" x="215.45" y="-756.87" font-family="PingFang SC" font-size="11.00">图像</text>
<text xml:space="preserve" text-anchor="middle" x="215.45" y="-741.12" font-family="PingFang SC" font-size="11.00">DigitalImage</text>
</g>
<!-- op10 -->
<g id="node19" class="node">
<title>op10</title>
<polygon fill="#a9c7f0" stroke="black" stroke-width="0.8" points="300.09,-678.58 243.59,-678.58 243.59,-657.08 300.09,-657.08 300.09,-678.58"/>
<text xml:space="preserve" text-anchor="middle" x="271.84" y="-666.03" font-family="PingFang SC" font-size="9.00">locatedAt</text>
</g>
<!-- DigitalImage&#45;&gt;op10 -->
<g id="edge21" class="edge">
<title>DigitalImage&#45;&gt;op10</title>
<path fill="none" stroke="#555555" d="M238.72,-717.03C247.94,-703.33 257.89,-688.56 264.45,-678.81"/>
</g>
<!-- dp3 -->
<g id="node28" class="node">
<title>dp3</title>
<polygon fill="#9bcb6a" stroke="black" stroke-width="0.8" points="137.41,-764 83.41,-764 83.41,-742.5 137.41,-742.5 137.41,-764"/>
<text xml:space="preserve" text-anchor="middle" x="110.41" y="-751.45" font-family="PingFang SC" font-size="9.00">类型</text>
</g>
<!-- DigitalImage&#45;&gt;dp3 -->
<g id="edge33" class="edge">
<title>DigitalImage&#45;&gt;dp3</title>
<path fill="none" stroke="#555555" d="M173.94,-752.24C161.78,-752.43 148.8,-752.64 137.76,-752.82"/>
</g>
<!-- dp4 -->
<g id="node30" class="node">
<title>dp4</title>
<polygon fill="#9bcb6a" stroke="black" stroke-width="0.8" points="286.4,-856.53 232.4,-856.53 232.4,-835.03 286.4,-835.03 286.4,-856.53"/>
<text xml:space="preserve" text-anchor="middle" x="259.4" y="-843.98" font-family="PingFang SC" font-size="9.00">文件名</text>
</g>
<!-- DigitalImage&#45;&gt;dp4 -->
<g id="edge35" class="edge">
<title>DigitalImage&#45;&gt;dp4</title>
<path fill="none" stroke="#555555" d="M233.07,-789.35C240.71,-805.73 249.09,-823.68 254.29,-834.83"/>
</g>
<!-- dp5 -->
<g id="node32" class="node">
<title>dp5</title>
<polygon fill="#9bcb6a" stroke="black" stroke-width="0.8" points="200.72,-837.14 136.72,-837.14 136.72,-815.64 200.72,-815.64 200.72,-837.14"/>
<text xml:space="preserve" text-anchor="middle" x="168.72" y="-824.59" font-family="PingFang SC" font-size="9.00">hasFileSize</text>
</g>
<!-- DigitalImage&#45;&gt;dp5 -->
<g id="edge37" class="edge">
<title>DigitalImage&#45;&gt;dp5</title>
<path fill="none" stroke="#555555" d="M193.46,-786.79C186.92,-797.25 180.25,-807.94 175.48,-815.58"/>
</g>
<!-- Geometry -->
<g id="node7" class="node">
<title>Geometry</title>
<ellipse fill="#afcbec" stroke="black" stroke-width="0.8" cx="336.1" cy="-587.58" rx="36" ry="36"/>
<text xml:space="preserve" text-anchor="middle" x="336.1" y="-585" font-family="PingFang SC" font-size="11.00">Geometry</text>
</g>
<!-- Evidence -->
<g id="node8" class="node">
<title>Evidence</title>
<ellipse fill="#afcbec" stroke="black" stroke-width="0.8" cx="102" cy="-630" rx="36" ry="36"/>
<text xml:space="preserve" text-anchor="middle" x="102" y="-627.42" font-family="PingFang SC" font-size="11.00">Evidence</text>
</g>
<!-- op0&#45;&gt;Place -->
<g id="edge2" class="edge">
<title>op0&#45;&gt;Place</title>
<path fill="none" stroke="#555555" d="M506.81,-523.85C502.59,-514.09 496.14,-499.15 489.81,-484.49"/>
<polygon fill="#555555" stroke="#555555" points="492.15,-483.73 487.12,-478.27 487.65,-485.67 492.15,-483.73"/>
</g>
<!-- op1&#45;&gt;Place -->
<g id="edge4" class="edge">
<title>op1&#45;&gt;Place</title>
<path fill="none" stroke="#555555" d="M386.58,-381.28C392.49,-385.21 399.18,-389.7 405.25,-393.83 413.02,-399.1 421.28,-404.77 429.21,-410.23"/>
<polygon fill="#555555" stroke="#555555" points="427.38,-411.95 434.53,-413.91 430.16,-407.91 427.38,-411.95"/>
</g>
<!-- op2&#45;&gt;Place -->
<g id="edge6" class="edge">
<title>op2&#45;&gt;Place</title>
<path fill="none" stroke="#555555" d="M401.45,-419.31C408.12,-421.18 415.11,-423.14 421.97,-425.07"/>
<polygon fill="#555555" stroke="#555555" points="421.07,-427.36 428.47,-426.89 422.4,-422.64 421.07,-427.36"/>
</g>
<!-- op3&#45;&gt;Actor -->
<g id="edge8" class="edge">
<title>op3&#45;&gt;Actor</title>
<path fill="none" stroke="#555555" d="M304.87,-288.61C303.25,-277.92 300.66,-260.77 298.13,-244.03"/>
<polygon fill="#555555" stroke="#555555" points="300.59,-243.93 297.12,-237.37 295.75,-244.66 300.59,-243.93"/>
</g>
<!-- op4&#45;&gt;Actor -->
<g id="edge10" class="edge">
<title>op4&#45;&gt;Actor</title>
<path fill="none" stroke="#555555" d="M232.66,-272.78C239.77,-263.2 250.56,-248.65 260.92,-234.7"/>
<polygon fill="#555555" stroke="#555555" points="262.84,-236.22 265.05,-229.14 258.91,-233.3 262.84,-236.22"/>
</g>
<!-- op5&#45;&gt;Place -->
<g id="edge12" class="edge">
<title>op5&#45;&gt;Place</title>
<path fill="none" stroke="#555555" d="M405.56,-442.64C410.33,-442.33 415.15,-442.03 419.89,-441.72"/>
<polygon fill="#555555" stroke="#555555" points="419.99,-444.17 426.82,-441.28 419.68,-439.28 419.99,-444.17"/>
</g>
<!-- op6&#45;&gt;Actor -->
<g id="edge14" class="edge">
<title>op6&#45;&gt;Actor</title>
<path fill="none" stroke="#555555" d="M357.61,-165.78C351.07,-168.6 343.85,-171.71 336.64,-174.81"/>
<polygon fill="#555555" stroke="#555555" points="335.71,-172.55 330.25,-177.57 337.65,-177.05 335.71,-172.55"/>
</g>
<!-- op7&#45;&gt;Actor -->
<g id="edge16" class="edge">
<title>op7&#45;&gt;Actor</title>
<path fill="none" stroke="#555555" d="M350.03,-193.2C346.93,-193.28 343.78,-193.35 340.63,-193.43"/>
<polygon fill="#555555" stroke="#555555" points="340.78,-190.98 333.84,-193.59 340.9,-195.87 340.78,-190.98"/>
</g>
<!-- op8&#45;&gt;Place -->
<g id="edge18" class="edge">
<title>op8&#45;&gt;Place</title>
<path fill="none" stroke="#555555" d="M487.71,-328.99C485.49,-342.7 481.57,-366.9 477.97,-389.07"/>
<polygon fill="#555555" stroke="#555555" points="475.56,-388.65 476.86,-395.95 480.4,-389.43 475.56,-388.65"/>
</g>
<!-- op9&#45;&gt;Geometry -->
<g id="edge20" class="edge">
<title>op9&#45;&gt;Geometry</title>
<path fill="none" stroke="#555555" d="M398.38,-535.69C390.56,-542.21 380.24,-550.81 370.25,-559.13"/>
<polygon fill="#555555" stroke="#555555" points="368.74,-557.2 364.93,-563.56 371.87,-560.97 368.74,-557.2"/>
</g>
<!-- op10&#45;&gt;Geometry -->
<g id="edge22" class="edge">
<title>op10&#45;&gt;Geometry</title>
<path fill="none" stroke="#555555" d="M280.51,-657.01C287.69,-648.05 298.3,-634.79 308.33,-622.26"/>
<polygon fill="#555555" stroke="#555555" points="310.09,-623.98 312.56,-616.98 306.27,-620.92 310.09,-623.98"/>
</g>
<!-- op11&#45;&gt;Geometry -->
<g id="edge24" class="edge">
<title>op11&#45;&gt;Geometry</title>
<path fill="none" stroke="#555555" d="M268.13,-518.87C277.61,-528.45 291.78,-542.78 304.74,-555.87"/>
<polygon fill="#555555" stroke="#555555" points="302.85,-557.45 309.52,-560.71 306.34,-554.01 302.85,-557.45"/>
</g>
<!-- op12&#45;&gt;Geometry -->
<g id="edge26" class="edge">
<title>op12&#45;&gt;Geometry</title>
<path fill="none" stroke="#555555" d="M406.38,-636.27C396.89,-629.7 384.39,-621.04 372.57,-612.85"/>
<polygon fill="#555555" stroke="#555555" points="374.11,-610.93 366.96,-608.96 371.32,-614.96 374.11,-610.93"/>
</g>
<!-- yb0 -->
<g id="node23" class="node">
<title>yb0</title>
<polygon fill="#ffcc33" stroke="black" stroke-width="0.8" points="688.74,-771.74 649.49,-771.74 649.49,-750.24 688.74,-750.24 688.74,-771.74"/>
<text xml:space="preserve" text-anchor="middle" x="669.11" y="-759.19" font-family="PingFang SC" font-size="9.00">string</text>
</g>
<!-- dp0&#45;&gt;yb0 -->
<g id="edge28" class="edge">
<title>dp0&#45;&gt;yb0</title>
<path fill="none" stroke="#555555" d="M606.59,-704.12C618.57,-715.02 637.16,-731.93 650.96,-744.48"/>
<polygon fill="#555555" stroke="#555555" points="648.98,-745.99 655.81,-748.88 652.28,-742.36 648.98,-745.99"/>
</g>
<!-- yb1 -->
<g id="node25" class="node">
<title>yb1</title>
<polygon fill="#ffcc33" stroke="black" stroke-width="0.8" points="753.94,-675.67 714.69,-675.67 714.69,-654.17 753.94,-654.17 753.94,-675.67"/>
<text xml:space="preserve" text-anchor="middle" x="734.32" y="-663.12" font-family="PingFang SC" font-size="9.00">string</text>
</g>
<!-- dp1&#45;&gt;yb1 -->
<g id="edge30" class="edge">
<title>dp1&#45;&gt;yb1</title>
<path fill="none" stroke="#555555" d="M662.14,-641.9C675.97,-646.31 692.75,-651.66 706.65,-656.1"/>
<polygon fill="#555555" stroke="#555555" points="705.6,-658.33 713.02,-658.13 707.09,-653.67 705.6,-658.33"/>
</g>
<!-- yb2 -->
<g id="node27" class="node">
<title>yb2</title>
<polygon fill="#ffcc33" stroke="black" stroke-width="0.8" points="578.48,-829.08 539.23,-829.08 539.23,-807.58 578.48,-807.58 578.48,-829.08"/>
<text xml:space="preserve" text-anchor="middle" x="558.86" y="-816.53" font-family="PingFang SC" font-size="9.00">string</text>
</g>
<!-- dp2&#45;&gt;yb2 -->
<g id="edge32" class="edge">
<title>dp2&#45;&gt;yb2</title>
<path fill="none" stroke="#555555" d="M528.59,-737.29C534.32,-752.64 544.85,-780.82 551.85,-799.57"/>
<polygon fill="#555555" stroke="#555555" points="549.51,-800.32 554.26,-806.02 554.1,-798.61 549.51,-800.32"/>
</g>
<!-- yb3 -->
<g id="node29" class="node">
<title>yb3</title>
<polygon fill="#ffcc33" stroke="black" stroke-width="0.8" points="39.25,-800.89 0,-800.89 0,-779.39 39.25,-779.39 39.25,-800.89"/>
<text xml:space="preserve" text-anchor="middle" x="19.62" y="-788.34" font-family="PingFang SC" font-size="9.00">string</text>
</g>
<!-- dp3&#45;&gt;yb3 -->
<g id="edge34" class="edge">
<title>dp3&#45;&gt;yb3</title>
<path fill="none" stroke="#555555" d="M83.17,-764.32C71.8,-768.94 58.6,-774.3 47.2,-778.94"/>
<polygon fill="#555555" stroke="#555555" points="46.59,-776.54 41.03,-781.45 48.44,-781.08 46.59,-776.54"/>
</g>
<!-- yb4 -->
<g id="node31" class="node">
<title>yb4</title>
<polygon fill="#ffcc33" stroke="black" stroke-width="0.8" points="289.41,-953.73 250.16,-953.73 250.16,-932.23 289.41,-932.23 289.41,-953.73"/>
<text xml:space="preserve" text-anchor="middle" x="269.79" y="-941.18" font-family="PingFang SC" font-size="9.00">string</text>
</g>
<!-- dp4&#45;&gt;yb4 -->
<g id="edge36" class="edge">
<title>dp4&#45;&gt;yb4</title>
<path fill="none" stroke="#555555" d="M260.55,-856.55C262.27,-872.67 265.55,-903.31 267.7,-923.44"/>
<polygon fill="#555555" stroke="#555555" points="265.26,-923.66 268.44,-930.36 270.13,-923.14 265.26,-923.66"/>
</g>
<!-- yb5 -->
<g id="node33" class="node">
<title>yb5</title>
<polygon fill="#ffcc33" stroke="black" stroke-width="0.8" points="143.29,-920.71 104.04,-920.71 104.04,-899.21 143.29,-899.21 143.29,-920.71"/>
<text xml:space="preserve" text-anchor="middle" x="123.67" y="-908.16" font-family="PingFang SC" font-size="9.00">string</text>
</g>
<!-- dp5&#45;&gt;yb5 -->
<g id="edge38" class="edge">
<title>dp5&#45;&gt;yb5</title>
<path fill="none" stroke="#555555" d="M162.83,-837.32C155.41,-851.08 142.55,-874.93 133.6,-891.54"/>
<polygon fill="#555555" stroke="#555555" points="131.44,-890.37 130.28,-897.7 135.76,-892.7 131.44,-890.37"/>
</g>
<!-- yb6 -->
<g id="node35" class="node">
<title>yb6</title>
<polygon fill="#ffcc33" stroke="black" stroke-width="0.8" points="672.07,-372.96 632.82,-372.96 632.82,-351.46 672.07,-351.46 672.07,-372.96"/>
<text xml:space="preserve" text-anchor="middle" x="652.44" y="-360.41" font-family="PingFang SC" font-size="9.00">string</text>
</g>
<!-- dp6&#45;&gt;yb6 -->
<g id="edge40" class="edge">
<title>dp6&#45;&gt;yb6</title>
<path fill="none" stroke="#555555" d="M581.73,-378.79C595.05,-375.67 611.06,-371.91 624.47,-368.77"/>
<polygon fill="#555555" stroke="#555555" points="624.71,-371.23 630.96,-367.25 623.59,-366.46 624.71,-371.23"/>
</g>
<!-- yb7 -->
<g id="node37" class="node">
<title>yb7</title>
<polygon fill="#ffcc33" stroke="black" stroke-width="0.8" points="691.59,-431.1 652.34,-431.1 652.34,-409.6 691.59,-409.6 691.59,-431.1"/>
<text xml:space="preserve" text-anchor="middle" x="671.97" y="-418.55" font-family="PingFang SC" font-size="9.00">string</text>
</g>
<!-- dp7&#45;&gt;yb7 -->
<g id="edge42" class="edge">
<title>dp7&#45;&gt;yb7</title>
<path fill="none" stroke="#555555" d="M597.98,-426.45C612.45,-425.26 629.62,-423.84 643.78,-422.68"/>
<polygon fill="#555555" stroke="#555555" points="643.87,-425.13 650.64,-422.11 643.47,-420.24 643.87,-425.13"/>
</g>
<!-- yb8 -->
<g id="node39" class="node">
<title>yb8</title>
<polygon fill="#ffcc33" stroke="black" stroke-width="0.8" points="676.61,-493.05 637.36,-493.05 637.36,-471.55 676.61,-471.55 676.61,-493.05"/>
<text xml:space="preserve" text-anchor="middle" x="656.99" y="-480.5" font-family="PingFang SC" font-size="9.00">string</text>
</g>
<!-- dp8&#45;&gt;yb8 -->
<g id="edge44" class="edge">
<title>dp8&#45;&gt;yb8</title>
<path fill="none" stroke="#555555" d="M581.61,-478.23C596.2,-479.02 614.15,-479.99 628.88,-480.78"/>
<polygon fill="#555555" stroke="#555555" points="628.49,-483.21 635.61,-481.14 628.75,-478.32 628.49,-483.21"/>
</g>
<!-- yb9 -->
<g id="node41" class="node">
<title>yb9</title>
<polygon fill="#ffcc33" stroke="black" stroke-width="0.8" points="188.78,-47.02 149.53,-47.02 149.53,-25.52 188.78,-25.52 188.78,-47.02"/>
<text xml:space="preserve" text-anchor="middle" x="169.16" y="-34.47" font-family="PingFang SC" font-size="9.00">string</text>
</g>
<!-- dp9&#45;&gt;yb9 -->
<g id="edge46" class="edge">
<title>dp9&#45;&gt;yb9</title>
<path fill="none" stroke="#555555" d="M214.72,-101.41C206.08,-89.06 191.87,-68.74 181.61,-54.07"/>
<polygon fill="#555555" stroke="#555555" points="183.82,-52.96 177.8,-48.63 179.81,-55.77 183.82,-52.96"/>
</g>
<!-- yb10 -->
<g id="node43" class="node">
<title>yb10</title>
<polygon fill="#ffcc33" stroke="black" stroke-width="0.8" points="65.24,-389.67 25.99,-389.67 25.99,-368.17 65.24,-368.17 65.24,-389.67"/>
<text xml:space="preserve" text-anchor="middle" x="45.61" y="-377.12" font-family="PingFang SC" font-size="9.00">string</text>
</g>
<!-- dp10&#45;&gt;yb10 -->
<g id="edge48" class="edge">
<title>dp10&#45;&gt;yb10</title>
<path fill="none" stroke="#555555" d="M122.45,-388.79C107.53,-386.87 89.08,-384.5 74,-382.57"/>
<polygon fill="#555555" stroke="#555555" points="74.32,-380.14 67.07,-381.68 73.7,-385 74.32,-380.14"/>
</g>
<!-- yb11 -->
<g id="node45" class="node">
<title>yb11</title>
<polygon fill="#ffcc33" stroke="black" stroke-width="0.8" points="79.42,-471.54 40.17,-471.54 40.17,-450.04 79.42,-450.04 79.42,-471.54"/>
<text xml:space="preserve" text-anchor="middle" x="59.8" y="-458.99" font-family="PingFang SC" font-size="9.00">string</text>
</g>
<!-- dp11&#45;&gt;yb11 -->
<g id="edge50" class="edge">
<title>dp11&#45;&gt;yb11</title>
<path fill="none" stroke="#555555" d="M133.61,-447.71C119.42,-450.22 102.12,-453.29 87.83,-455.82"/>
<polygon fill="#555555" stroke="#555555" points="87.78,-453.34 81.31,-456.98 88.63,-458.17 87.78,-453.34"/>
</g>
<!-- yb12 -->
<g id="node47" class="node">
<title>yb12</title>
<polygon fill="#ffcc33" stroke="black" stroke-width="0.8" points="91.97,-308.16 42.97,-308.16 42.97,-286.66 91.97,-286.66 91.97,-308.16"/>
<text xml:space="preserve" text-anchor="middle" x="67.47" y="-295.61" font-family="PingFang SC" font-size="9.00">decimal</text>
</g>
<!-- dp12&#45;&gt;yb12 -->
<g id="edge52" class="edge">
<title>dp12&#45;&gt;yb12</title>
<path fill="none" stroke="#555555" d="M134.46,-327.74C123.8,-322.91 111.15,-317.18 99.73,-312.01"/>
<polygon fill="#555555" stroke="#555555" points="100.83,-309.82 93.44,-309.17 98.81,-314.29 100.83,-309.82"/>
</g>
<!-- yb13 -->
<g id="node49" class="node">
<title>yb13</title>
<polygon fill="#ffcc33" stroke="black" stroke-width="0.8" points="511.56,-21.5 472.31,-21.5 472.31,0 511.56,0 511.56,-21.5"/>
<text xml:space="preserve" text-anchor="middle" x="491.93" y="-8.95" font-family="PingFang SC" font-size="9.00">string</text>
</g>
<!-- dp13&#45;&gt;yb13 -->
<g id="edge54" class="edge">
<title>dp13&#45;&gt;yb13</title>
<path fill="none" stroke="#555555" d="M478.36,-96.31C480.92,-80.14 485.73,-49.87 488.88,-30.01"/>
<polygon fill="#555555" stroke="#555555" points="491.28,-30.5 489.96,-23.2 486.44,-29.73 491.28,-30.5"/>
</g>
<!-- yb14 -->
<g id="node51" class="node">
<title>yb14</title>
<polygon fill="#ffcc33" stroke="black" stroke-width="0.8" points="634.15,-75.52 594.9,-75.52 594.9,-54.02 634.15,-54.02 634.15,-75.52"/>
<text xml:space="preserve" text-anchor="middle" x="614.53" y="-62.97" font-family="PingFang SC" font-size="9.00">string</text>
</g>
<!-- dp14&#45;&gt;yb14 -->
<g id="edge56" class="edge">
<title>dp14&#45;&gt;yb14</title>
<path fill="none" stroke="#555555" d="M562.6,-133.76C572.59,-120.49 589.41,-98.14 601.2,-82.48"/>
<polygon fill="#555555" stroke="#555555" points="603.05,-84.09 605.3,-77.03 599.13,-81.15 603.05,-84.09"/>
</g>
<!-- yb15 -->
<g id="node53" class="node">
<title>yb15</title>
<polygon fill="#ffcc33" stroke="black" stroke-width="0.8" points="704.4,-161.24 665.15,-161.24 665.15,-139.74 704.4,-139.74 704.4,-161.24"/>
<text xml:space="preserve" text-anchor="middle" x="684.77" y="-148.69" font-family="PingFang SC" font-size="9.00">string</text>
</g>
<!-- dp15&#45;&gt;yb15 -->
<g id="edge58" class="edge">
<title>dp15&#45;&gt;yb15</title>
<path fill="none" stroke="#555555" d="M614.98,-185.33C627.7,-178.98 643.76,-170.96 657.27,-164.22"/>
<polygon fill="#555555" stroke="#555555" points="658.36,-166.42 663.53,-161.1 656.17,-162.03 658.36,-166.42"/>
</g>
</g>
</svg>
