<?xml version="1.0" encoding="UTF-8" standalone="no"?>
<!DOCTYPE svg PUBLIC "-//W3C//DTD SVG 1.1//EN"
 "http://www.w3.org/Graphics/SVG/1.1/DTD/svg11.dtd">
<!-- Generated by graphviz version 14.0.2 (20251019.1705)
 -->
<!-- Title: CLOnto Pages: 1 -->
<svg width="588pt" height="353pt"
 viewBox="0.00 0.00 588.00 353.00" xmlns="http://www.w3.org/2000/svg" xmlns:xlink="http://www.w3.org/1999/xlink">
<g id="graph0" class="graph" transform="scale(1 1) rotate(0) translate(4 348.74)">
<title>CLOnto</title>
<polygon fill="white" stroke="none" points="-4,4 -4,-348.74 584.09,-348.74 584.09,4 -4,4"/>
<!-- Place -->
<g id="node1" class="node">
<title>Place</title>
<path fill="#2e75b6" stroke="black" d="M357.36,-282.74C357.36,-282.74 304.68,-282.74 304.68,-282.74 298.68,-282.74 292.68,-276.74 292.68,-270.74 292.68,-270.74 292.68,-224.27 292.68,-224.27 292.68,-218.27 298.68,-212.27 304.68,-212.27 304.68,-212.27 357.36,-212.27 357.36,-212.27 363.36,-212.27 369.36,-218.27 369.36,-224.27 369.36,-224.27 369.36,-270.74 369.36,-270.74 369.36,-276.74 363.36,-282.74 357.36,-282.74"/>
<text xml:space="preserve" text-anchor="middle" x="331.02" y="-261.98" font-family="PingFang SC" font-size="12.00" fill="white">Place</text>
<text xml:space="preserve" text-anchor="middle" x="331.02" y="-244.73" font-family="PingFang SC" font-size="12.00" fill="white">地点 (pl)</text>
<text xml:space="preserve" text-anchor="middle" x="331.02" y="-227.48" font-family="PingFang SC" font-size="12.00" fill="white">30 属性</text>
</g>
<!-- Geometry -->
<g id="node7" class="node">
<title>Geometry</title>
<ellipse fill="#374151" stroke="black" cx="518.98" cy="-159.51" rx="61.12" ry="37.63"/>
<text xml:space="preserve" text-anchor="middle" x="518.98" y="-165.36" font-family="PingFang SC" font-size="12.00" fill="white">Geometry</text>
<text xml:space="preserve" text-anchor="middle" x="518.98" y="-148.11" font-family="PingFang SC" font-size="12.00" fill="white">WGS84</text>
</g>
<!-- Place&#45;&gt;Geometry -->
<g id="edge9" class="edge">
<title>Place&#45;&gt;Geometry</title>
<path fill="none" stroke="#3a8a55" stroke-dasharray="5,2" d="M369.65,-229.7C395.47,-217.48 430.25,-201.02 459.64,-187.12"/>
<polygon fill="#3a8a55" stroke="#3a8a55" points="460.87,-190.4 468.42,-182.96 457.88,-184.07 460.87,-190.4"/>
<text xml:space="preserve" text-anchor="middle" x="419.61" y="-218.93" font-family="PingFang SC" font-size="9.00" fill="#374151">locatedAt</text>
</g>
<!-- CulturalLandscapeUnit -->
<g id="node2" class="node">
<title>CulturalLandscapeUnit</title>
<path fill="#17a2b8" stroke="black" d="M146.43,-344.74C146.43,-344.74 12,-344.74 12,-344.74 6,-344.74 0,-338.74 0,-332.74 0,-332.74 0,-286.27 0,-286.27 0,-280.27 6,-274.27 12,-274.27 12,-274.27 146.43,-274.27 146.43,-274.27 152.43,-274.27 158.43,-280.27 158.43,-286.27 158.43,-286.27 158.43,-332.74 158.43,-332.74 158.43,-338.74 152.43,-344.74 146.43,-344.74"/>
<text xml:space="preserve" text-anchor="middle" x="79.22" y="-323.98" font-family="PingFang SC" font-size="12.00" fill="white">CulturalLandscapeUnit</text>
<text xml:space="preserve" text-anchor="middle" x="79.22" y="-306.73" font-family="PingFang SC" font-size="12.00" fill="white">文化景观单元 (clu)</text>
<text xml:space="preserve" text-anchor="middle" x="79.22" y="-289.48" font-family="PingFang SC" font-size="12.00" fill="white">10 属性</text>
</g>
<!-- CulturalLandscapeUnit&#45;&gt;Place -->
<g id="edge1" class="edge">
<title>CulturalLandscapeUnit&#45;&gt;Place</title>
<path fill="none" stroke="#9aa4b2" d="M158.91,-289.98C199.17,-279.98 246.89,-268.14 281.7,-259.5"/>
<polygon fill="#9aa4b2" stroke="#9aa4b2" points="282.18,-262.99 291.05,-257.18 280.5,-256.19 282.18,-262.99"/>
<text xml:space="preserve" text-anchor="middle" x="219.56" y="-289.01" font-family="PingFang SC" font-size="9.00" fill="#374151">containsPlace</text>
</g>
<!-- CulturalLandscapeUnit&#45;&gt;Geometry -->
<g id="edge6" class="edge">
<title>CulturalLandscapeUnit&#45;&gt;Geometry</title>
<path fill="none" stroke="#3a8a55" stroke-dasharray="5,2" d="M158.74,-319.76C221.76,-324.55 311.02,-323.44 381.36,-291.51 424.14,-272.09 461.6,-233.41 486.43,-202.92"/>
<polygon fill="#3a8a55" stroke="#3a8a55" points="488.97,-205.35 492.46,-195.34 483.5,-200.99 488.97,-205.35"/>
<text xml:space="preserve" text-anchor="middle" x="331.02" y="-322.36" font-family="PingFang SC" font-size="9.00" fill="#374151">locatedAt</text>
</g>
<!-- Actor -->
<g id="node3" class="node">
<title>Actor</title>
<path fill="#7030a0" stroke="black" d="M365.24,-194.74C365.24,-194.74 296.81,-194.74 296.81,-194.74 290.81,-194.74 284.81,-188.74 284.81,-182.74 284.81,-182.74 284.81,-136.27 284.81,-136.27 284.81,-130.27 290.81,-124.27 296.81,-124.27 296.81,-124.27 365.24,-124.27 365.24,-124.27 371.24,-124.27 377.24,-130.27 377.24,-136.27 377.24,-136.27 377.24,-182.74 377.24,-182.74 377.24,-188.74 371.24,-194.74 365.24,-194.74"/>
<text xml:space="preserve" text-anchor="middle" x="331.02" y="-173.98" font-family="PingFang SC" font-size="12.00" fill="white">Actor</text>
<text xml:space="preserve" text-anchor="middle" x="331.02" y="-156.73" font-family="PingFang SC" font-size="12.00" fill="white">行动者 (ac)</text>
<text xml:space="preserve" text-anchor="middle" x="331.02" y="-139.48" font-family="PingFang SC" font-size="12.00" fill="white">1 属性</text>
</g>
<!-- Document -->
<g id="node4" class="node">
<title>Document</title>
<path fill="#c55a11" stroke="black" d="M111.56,-118.74C111.56,-118.74 46.88,-118.74 46.88,-118.74 40.88,-118.74 34.88,-112.74 34.88,-106.74 34.88,-106.74 34.88,-60.27 34.88,-60.27 34.88,-54.27 40.88,-48.27 46.88,-48.27 46.88,-48.27 111.56,-48.27 111.56,-48.27 117.56,-48.27 123.56,-54.27 123.56,-60.27 123.56,-60.27 123.56,-106.74 123.56,-106.74 123.56,-112.74 117.56,-118.74 111.56,-118.74"/>
<text xml:space="preserve" text-anchor="middle" x="79.22" y="-97.98" font-family="PingFang SC" font-size="12.00" fill="white">Document</text>
<text xml:space="preserve" text-anchor="middle" x="79.22" y="-80.73" font-family="PingFang SC" font-size="12.00" fill="white">文档 (doc)</text>
<text xml:space="preserve" text-anchor="middle" x="79.22" y="-63.48" font-family="PingFang SC" font-size="12.00" fill="white">20 属性</text>
</g>
<!-- Document&#45;&gt;Place -->
<g id="edge2" class="edge">
<title>Document&#45;&gt;Place</title>
<path fill="none" stroke="#9aa4b2" d="M123.65,-96.76C140.12,-101.62 159.08,-107.03 176.43,-111.51 214.48,-121.34 234.6,-103.51 262.68,-131.01 286.4,-154.24 263.53,-175.08 280.68,-203.51 281.98,-205.66 283.42,-207.77 284.97,-209.83"/>
<polygon fill="#9aa4b2" stroke="#9aa4b2" points="282.19,-211.97 291.34,-217.31 287.52,-207.43 282.19,-211.97"/>
<text xml:space="preserve" text-anchor="middle" x="219.56" y="-162.96" font-family="PingFang SC" font-size="9.00" fill="#374151">hasDestinationPlace</text>
<text xml:space="preserve" text-anchor="middle" x="219.56" y="-149.46" font-family="PingFang SC" font-size="9.00" fill="#374151">hasOriginPlace</text>
<text xml:space="preserve" text-anchor="middle" x="219.56" y="-135.96" font-family="PingFang SC" font-size="9.00" fill="#374151">mentionsPlaceEntity</text>
</g>
<!-- Document&#45;&gt;Actor -->
<g id="edge3" class="edge">
<title>Document&#45;&gt;Actor</title>
<path fill="none" stroke="#9aa4b2" d="M123.93,-72.21C163.01,-64.66 220.47,-60.05 262.68,-84.51 274.31,-91.25 271.96,-99.89 281.47,-114.91"/>
<polygon fill="#9aa4b2" stroke="#9aa4b2" points="278.48,-116.75 287.23,-122.72 284.11,-112.59 278.48,-116.75"/>
<text xml:space="preserve" text-anchor="middle" x="219.56" y="-102.96" font-family="PingFang SC" font-size="9.00" fill="#374151">hasRecipient</text>
<text xml:space="preserve" text-anchor="middle" x="219.56" y="-89.46" font-family="PingFang SC" font-size="9.00" fill="#374151">hasSender</text>
</g>
<!-- Document&#45;&gt;Geometry -->
<g id="edge7" class="edge">
<title>Document&#45;&gt;Geometry</title>
<path fill="none" stroke="#3a8a55" stroke-dasharray="5,2" d="M123.9,-56.82C183.92,-23.82 294.32,23.66 381.36,-14.01 428.45,-34.39 466.77,-79.87 490.71,-114.6"/>
<polygon fill="#3a8a55" stroke="#3a8a55" points="487.76,-116.47 496.24,-122.82 493.57,-112.57 487.76,-116.47"/>
<text xml:space="preserve" text-anchor="middle" x="331.02" y="-18.96" font-family="PingFang SC" font-size="9.00" fill="#374151">locatedAt</text>
</g>
<!-- Event -->
<g id="node5" class="node">
<title>Event</title>
<path fill="#c0392b" stroke="black" d="M107.06,-248.74C107.06,-248.74 51.38,-248.74 51.38,-248.74 45.38,-248.74 39.38,-242.74 39.38,-236.74 39.38,-236.74 39.38,-190.27 39.38,-190.27 39.38,-184.27 45.38,-178.27 51.38,-178.27 51.38,-178.27 107.06,-178.27 107.06,-178.27 113.06,-178.27 119.06,-184.27 119.06,-190.27 119.06,-190.27 119.06,-236.74 119.06,-236.74 119.06,-242.74 113.06,-248.74 107.06,-248.74"/>
<text xml:space="preserve" text-anchor="middle" x="79.22" y="-227.98" font-family="PingFang SC" font-size="12.00" fill="white">Event</text>
<text xml:space="preserve" text-anchor="middle" x="79.22" y="-210.73" font-family="PingFang SC" font-size="12.00" fill="white">事件 (ev)</text>
<text xml:space="preserve" text-anchor="middle" x="79.22" y="-193.48" font-family="PingFang SC" font-size="12.00" fill="white">27 属性</text>
</g>
<!-- Event&#45;&gt;Place -->
<g id="edge5" class="edge">
<title>Event&#45;&gt;Place</title>
<path fill="none" stroke="#9aa4b2" d="M119.52,-218.86C163.31,-224.82 234.15,-234.46 281.4,-240.89"/>
<polygon fill="#9aa4b2" stroke="#9aa4b2" points="280.69,-244.33 291.07,-242.21 281.64,-237.39 280.69,-244.33"/>
<text xml:space="preserve" text-anchor="middle" x="219.56" y="-242.41" font-family="PingFang SC" font-size="9.00" fill="#374151">tookPlaceIn</text>
</g>
<!-- Event&#45;&gt;Actor -->
<g id="edge4" class="edge">
<title>Event&#45;&gt;Actor</title>
<path fill="none" stroke="#9aa4b2" d="M119.44,-205.67C156.43,-198.2 213.41,-186.49 262.68,-175.51 266.2,-174.72 269.82,-173.9 273.46,-173.07"/>
<polygon fill="#9aa4b2" stroke="#9aa4b2" points="273.99,-176.54 282.94,-170.87 272.41,-169.72 273.99,-176.54"/>
<text xml:space="preserve" text-anchor="middle" x="219.56" y="-212.16" font-family="PingFang SC" font-size="9.00" fill="#374151">carriedOutBy</text>
<text xml:space="preserve" text-anchor="middle" x="219.56" y="-198.66" font-family="PingFang SC" font-size="9.00" fill="#374151">mentionsGroup</text>
</g>
<!-- DigitalImage -->
<g id="node6" class="node">
<title>DigitalImage</title>
<path fill="#6c757d" stroke="black" d="M369.36,-106.74C369.36,-106.74 292.68,-106.74 292.68,-106.74 286.68,-106.74 280.68,-100.74 280.68,-94.74 280.68,-94.74 280.68,-48.27 280.68,-48.27 280.68,-42.27 286.68,-36.27 292.68,-36.27 292.68,-36.27 369.36,-36.27 369.36,-36.27 375.36,-36.27 381.36,-42.27 381.36,-48.27 381.36,-48.27 381.36,-94.74 381.36,-94.74 381.36,-100.74 375.36,-106.74 369.36,-106.74"/>
<text xml:space="preserve" text-anchor="middle" x="331.02" y="-85.98" font-family="PingFang SC" font-size="12.00" fill="white">DigitalImage</text>
<text xml:space="preserve" text-anchor="middle" x="331.02" y="-68.73" font-family="PingFang SC" font-size="12.00" fill="white">图像 (img)</text>
<text xml:space="preserve" text-anchor="middle" x="331.02" y="-51.48" font-family="PingFang SC" font-size="12.00" fill="white">5 属性</text>
</g>
<!-- DigitalImage&#45;&gt;Geometry -->
<g id="edge8" class="edge">
<title>DigitalImage&#45;&gt;Geometry</title>
<path fill="none" stroke="#3a8a55" stroke-dasharray="5,2" d="M381.85,-95.09C405.87,-106.46 434.82,-120.16 459.84,-132"/>
<polygon fill="#3a8a55" stroke="#3a8a55" points="458.03,-135.01 468.56,-136.12 461.02,-128.68 458.03,-135.01"/>
<text xml:space="preserve" text-anchor="middle" x="419.61" y="-125.73" font-family="PingFang SC" font-size="9.00" fill="#374151">locatedAt</text>
</g>
</g>
</svg>
