<?xml version="1.0" encoding="UTF-8" standalone="no"?>
<!DOCTYPE svg PUBLIC "-//W3C//DTD SVG 1.1//EN"
 "http://www.w3.org/Graphics/SVG/1.1/DTD/svg11.dtd">
<!-- Generated by graphviz version 14.0.2 (20251019.1705)
 -->
<!-- Title: VOWL Pages: 1 -->
<svg width="1062pt" height="897pt"
 viewBox="0.00 0.00 1062.00 897.00" xmlns="http://www.w3.org/2000/svg" xmlns:xlink="http://www.w3.org/1999/xlink">
<g id="graph0" class="graph" transform="scale(1 1) rotate(0) translate(4 893.34)">
<title>VOWL</title>
<polygon fill="white" stroke="none" points="-4,4 -4,-893.34 1058.02,-893.34 1058.02,4 -4,4"/>
<!-- Place -->
<g id="node1" class="node">
<title>Place</title>
<ellipse fill="#afcbec" stroke="black" stroke-width="0.8" cx="567.48" cy="-267.61" rx="45" ry="45"/>
<text xml:space="preserve" text-anchor="middle" x="567.48" y="-265.61" font-family="PingFang SC" font-size="10.00">Place</text>
</g>
<!-- op12 -->
<g id="node21" class="node">
<title>op12</title>
<polygon fill="#a9c7f0" stroke="black" stroke-width="0.8" points="445.69,-369.07 389.19,-369.07 389.19,-347.57 445.69,-347.57 445.69,-369.07"/>
<text xml:space="preserve" text-anchor="middle" x="417.44" y="-356.52" font-family="PingFang SC" font-size="9.00">locatedAt</text>
</g>
<!-- Place&#45;&gt;op12 -->
<g id="edge25" class="edge">
<title>Place&#45;&gt;op12</title>
<path fill="none" stroke="#555555" d="M527.33,-288.48C506.36,-299.76 480.49,-314.28 458.17,-328.58 449.03,-334.43 439.19,-341.6 431.47,-347.42"/>
</g>
<!-- op13 -->
<g id="node22" class="node">
<title>op13</title>
<polygon fill="#a9c7f0" stroke="black" stroke-width="0.8" points="531.77,-353.68 461.77,-353.68 461.77,-332.18 531.77,-332.18 531.77,-353.68"/>
<text xml:space="preserve" text-anchor="middle" x="496.77" y="-341.13" font-family="PingFang SC" font-size="9.00">hasEvidence</text>
</g>
<!-- Place&#45;&gt;op13 -->
<g id="edge27" class="edge">
<title>Place&#45;&gt;op13</title>
<path fill="none" stroke="#555555" d="M536.67,-300.43C526.1,-311.69 514.98,-323.53 507.17,-331.85"/>
</g>
<!-- dp6 -->
<g id="node40" class="node">
<title>dp6</title>
<polygon fill="#9bcb6a" stroke="black" stroke-width="0.8" points="566.03,-179.18 510.28,-179.18 510.28,-157.68 566.03,-157.68 566.03,-179.18"/>
<text xml:space="preserve" text-anchor="middle" x="538.15" y="-166.63" font-family="PingFang SC" font-size="9.00">hasName</text>
</g>
<!-- Place&#45;&gt;dp6 -->
<g id="edge51" class="edge">
<title>Place&#45;&gt;dp6</title>
<path fill="none" stroke="#555555" d="M554.62,-224.11C549.75,-207.66 544.62,-190.31 541.41,-179.43"/>
</g>
<!-- dp7 -->
<g id="node42" class="node">
<title>dp7</title>
<polygon fill="#9bcb6a" stroke="black" stroke-width="0.8" points="493.63,-202.16 433.38,-202.16 433.38,-180.66 493.63,-180.66 493.63,-202.16"/>
<text xml:space="preserve" text-anchor="middle" x="463.51" y="-189.61" font-family="PingFang SC" font-size="9.00">hasDistrict</text>
</g>
<!-- Place&#45;&gt;dp7 -->
<g id="edge53" class="edge">
<title>Place&#45;&gt;dp7</title>
<path fill="none" stroke="#555555" d="M531.12,-240.96C513.08,-227.74 492.28,-212.49 478.56,-202.44"/>
</g>
<!-- dp8 -->
<g id="node44" class="node">
<title>dp8</title>
<polygon fill="#9bcb6a" stroke="black" stroke-width="0.8" points="636.17,-183.14 582.17,-183.14 582.17,-161.64 636.17,-161.64 636.17,-183.14"/>
<text xml:space="preserve" text-anchor="middle" x="609.17" y="-170.59" font-family="PingFang SC" font-size="9.00">hasTown</text>
</g>
<!-- Place&#45;&gt;dp8 -->
<g id="edge55" class="edge">
<title>Place&#45;&gt;dp8</title>
<path fill="none" stroke="#555555" d="M585.64,-226.13C592.49,-210.49 599.73,-193.96 604.34,-183.43"/>
</g>
<!-- CulturalLandscapeUnit -->
<g id="node2" class="node">
<title>CulturalLandscapeUnit</title>
<ellipse fill="#afcbec" stroke="black" stroke-width="0.8" cx="270.43" cy="-288.68" rx="45" ry="45"/>
<text xml:space="preserve" text-anchor="middle" x="270.43" y="-286.68" font-family="PingFang SC" font-size="10.00">CulturalLandscapeUnit</text>
</g>
<!-- op0 -->
<g id="node9" class="node">
<title>op0</title>
<polygon fill="#a9c7f0" stroke="black" stroke-width="0.8" points="430.25,-261.47 354.25,-261.47 354.25,-239.97 430.25,-239.97 430.25,-261.47"/>
<text xml:space="preserve" text-anchor="middle" x="392.25" y="-248.92" font-family="PingFang SC" font-size="9.00">containsPlace</text>
</g>
<!-- CulturalLandscapeUnit&#45;&gt;op0 -->
<g id="edge1" class="edge">
<title>CulturalLandscapeUnit&#45;&gt;op0</title>
<path fill="none" stroke="#555555" d="M313.72,-275.19C327.81,-270.8 343.28,-265.98 356.73,-261.79"/>
</g>
<!-- op11 -->
<g id="node20" class="node">
<title>op11</title>
<polygon fill="#a9c7f0" stroke="black" stroke-width="0.8" points="254.93,-417.26 198.43,-417.26 198.43,-395.76 254.93,-395.76 254.93,-417.26"/>
<text xml:space="preserve" text-anchor="middle" x="226.68" y="-404.71" font-family="PingFang SC" font-size="9.00">locatedAt</text>
</g>
<!-- CulturalLandscapeUnit&#45;&gt;op11 -->
<g id="edge23" class="edge">
<title>CulturalLandscapeUnit&#45;&gt;op11</title>
<path fill="none" stroke="#555555" d="M254.63,-331.22C246.07,-354.29 236.15,-381.01 230.73,-395.6"/>
</g>
<!-- op14 -->
<g id="node23" class="node">
<title>op14</title>
<polygon fill="#a9c7f0" stroke="black" stroke-width="0.8" points="372.71,-388.75 302.71,-388.75 302.71,-367.25 372.71,-367.25 372.71,-388.75"/>
<text xml:space="preserve" text-anchor="middle" x="337.71" y="-376.2" font-family="PingFang SC" font-size="9.00">hasEvidence</text>
</g>
<!-- CulturalLandscapeUnit&#45;&gt;op14 -->
<g id="edge29" class="edge">
<title>CulturalLandscapeUnit&#45;&gt;op14</title>
<path fill="none" stroke="#555555" d="M297.6,-324.75C308.98,-339.86 321.39,-356.33 329.34,-366.89"/>
</g>
<!-- dp0 -->
<g id="node28" class="node">
<title>dp0</title>
<polygon fill="#9bcb6a" stroke="black" stroke-width="0.8" points="197.89,-297.92 118.89,-297.92 118.89,-276.42 197.89,-276.42 197.89,-297.92"/>
<text xml:space="preserve" text-anchor="middle" x="158.39" y="-285.37" font-family="PingFang SC" font-size="9.00">hasSurveyDate</text>
</g>
<!-- CulturalLandscapeUnit&#45;&gt;dp0 -->
<g id="edge39" class="edge">
<title>CulturalLandscapeUnit&#45;&gt;dp0</title>
<path fill="none" stroke="#555555" d="M225.18,-288.07C216.19,-287.95 206.82,-287.83 198.04,-287.71"/>
</g>
<!-- dp1 -->
<g id="node30" class="node">
<title>dp1</title>
<polygon fill="#9bcb6a" stroke="black" stroke-width="0.8" points="274.63,-173.54 220.63,-173.54 220.63,-152.04 274.63,-152.04 274.63,-173.54"/>
<text xml:space="preserve" text-anchor="middle" x="247.63" y="-160.99" font-family="PingFang SC" font-size="9.00">hasType</text>
</g>
<!-- CulturalLandscapeUnit&#45;&gt;dp1 -->
<g id="edge41" class="edge">
<title>CulturalLandscapeUnit&#45;&gt;dp1</title>
<path fill="none" stroke="#555555" d="M262.39,-244.3C257.83,-219.1 252.47,-189.54 249.63,-173.86"/>
</g>
<!-- dp2 -->
<g id="node32" class="node">
<title>dp2</title>
<polygon fill="#9bcb6a" stroke="black" stroke-width="0.8" points="205.57,-253.34 149.82,-253.34 149.82,-231.84 205.57,-231.84 205.57,-253.34"/>
<text xml:space="preserve" text-anchor="middle" x="177.69" y="-240.79" font-family="PingFang SC" font-size="9.00">hasName</text>
</g>
<!-- CulturalLandscapeUnit&#45;&gt;dp2 -->
<g id="edge43" class="edge">
<title>CulturalLandscapeUnit&#45;&gt;dp2</title>
<path fill="none" stroke="#555555" d="M230.02,-268.6C219.68,-263.45 208.92,-258.11 199.88,-253.62"/>
</g>
<!-- Actor -->
<g id="node3" class="node">
<title>Actor</title>
<ellipse fill="#afcbec" stroke="black" stroke-width="0.8" cx="819.92" cy="-437.21" rx="45" ry="45"/>
<text xml:space="preserve" text-anchor="middle" x="819.92" y="-435.21" font-family="PingFang SC" font-size="10.00">Actor</text>
</g>
<!-- op15 -->
<g id="node24" class="node">
<title>op15</title>
<polygon fill="#a9c7f0" stroke="black" stroke-width="0.8" points="689.09,-468.17 619.09,-468.17 619.09,-446.67 689.09,-446.67 689.09,-468.17"/>
<text xml:space="preserve" text-anchor="middle" x="654.09" y="-455.62" font-family="PingFang SC" font-size="9.00">hasEvidence</text>
</g>
<!-- Actor&#45;&gt;op15 -->
<g id="edge31" class="edge">
<title>Actor&#45;&gt;op15</title>
<path fill="none" stroke="#555555" d="M775.04,-442.68C748.09,-445.96 714.29,-450.08 689.28,-453.13"/>
</g>
<!-- dp9 -->
<g id="node46" class="node">
<title>dp9</title>
<polygon fill="#9bcb6a" stroke="black" stroke-width="0.8" points="962.99,-523.59 907.24,-523.59 907.24,-502.09 962.99,-502.09 962.99,-523.59"/>
<text xml:space="preserve" text-anchor="middle" x="935.12" y="-511.04" font-family="PingFang SC" font-size="9.00">hasName</text>
</g>
<!-- Actor&#45;&gt;dp9 -->
<g id="edge57" class="edge">
<title>Actor&#45;&gt;dp9</title>
<path fill="none" stroke="#555555" d="M857.64,-461.97C878.11,-475.41 902.41,-491.36 918.26,-501.77"/>
</g>
<!-- Document -->
<g id="node4" class="node">
<title>Document</title>
<ellipse fill="#afcbec" stroke="black" stroke-width="0.8" cx="629.77" cy="-533.3" rx="45" ry="45"/>
<text xml:space="preserve" text-anchor="middle" x="629.77" y="-531.3" font-family="PingFang SC" font-size="10.00">Document</text>
</g>
<!-- op1 -->
<g id="node10" class="node">
<title>op1</title>
<polygon fill="#a9c7f0" stroke="black" stroke-width="0.8" points="753.44,-366.06 651.19,-366.06 651.19,-344.56 753.44,-344.56 753.44,-366.06"/>
<text xml:space="preserve" text-anchor="middle" x="702.32" y="-353.51" font-family="PingFang SC" font-size="9.00">hasDestinationPlace</text>
</g>
<!-- Document&#45;&gt;op1 -->
<g id="edge3" class="edge">
<title>Document&#45;&gt;op1</title>
<path fill="none" stroke="#555555" d="M666.13,-506.18C676.47,-496.51 686.58,-484.77 692.69,-471.77 709.44,-436.15 706.33,-387.64 703.85,-366.23"/>
</g>
<!-- op2 -->
<g id="node11" class="node">
<title>op2</title>
<polygon fill="#a9c7f0" stroke="black" stroke-width="0.8" points="643.2,-403.59 563.45,-403.59 563.45,-382.09 643.2,-382.09 643.2,-403.59"/>
<text xml:space="preserve" text-anchor="middle" x="603.32" y="-391.04" font-family="PingFang SC" font-size="9.00">hasOriginPlace</text>
</g>
<!-- Document&#45;&gt;op2 -->
<g id="edge5" class="edge">
<title>Document&#45;&gt;op2</title>
<path fill="none" stroke="#555555" d="M619.15,-489.35C617.85,-483.46 616.59,-477.48 615.49,-471.77 610.84,-447.67 606.81,-419.16 604.76,-403.87"/>
</g>
<!-- op3 -->
<g id="node12" class="node">
<title>op3</title>
<polygon fill="#a9c7f0" stroke="black" stroke-width="0.8" points="769.83,-521.48 699.08,-521.48 699.08,-499.98 769.83,-499.98 769.83,-521.48"/>
<text xml:space="preserve" text-anchor="middle" x="734.46" y="-508.93" font-family="PingFang SC" font-size="9.00">hasRecipient</text>
</g>
<!-- Document&#45;&gt;op3 -->
<g id="edge7" class="edge">
<title>Document&#45;&gt;op3</title>
<path fill="none" stroke="#555555" d="M673.87,-523.79C682.25,-521.98 690.92,-520.12 698.99,-518.38"/>
</g>
<!-- op4 -->
<g id="node13" class="node">
<title>op4</title>
<polygon fill="#a9c7f0" stroke="black" stroke-width="0.8" points="785.87,-559.02 724.87,-559.02 724.87,-537.52 785.87,-537.52 785.87,-559.02"/>
<text xml:space="preserve" text-anchor="middle" x="755.37" y="-546.47" font-family="PingFang SC" font-size="9.00">hasSender</text>
</g>
<!-- Document&#45;&gt;op4 -->
<g id="edge9" class="edge">
<title>Document&#45;&gt;op4</title>
<path fill="none" stroke="#555555" d="M674.76,-538.66C691.37,-540.64 709.8,-542.83 724.83,-544.63"/>
</g>
<!-- op5 -->
<g id="node14" class="node">
<title>op5</title>
<polygon fill="#a9c7f0" stroke="black" stroke-width="0.8" points="579.25,-441.12 477,-441.12 477,-419.62 579.25,-419.62 579.25,-441.12"/>
<text xml:space="preserve" text-anchor="middle" x="528.13" y="-428.57" font-family="PingFang SC" font-size="9.00">mentionsPlaceEntity</text>
</g>
<!-- Document&#45;&gt;op5 -->
<g id="edge11" class="edge">
<title>Document&#45;&gt;op5</title>
<path fill="none" stroke="#555555" d="M597.89,-501.01C577.63,-480.49 552.68,-455.23 538.78,-441.15"/>
</g>
<!-- op9 -->
<g id="node18" class="node">
<title>op9</title>
<polygon fill="#a9c7f0" stroke="black" stroke-width="0.8" points="474.56,-579.87 418.06,-579.87 418.06,-558.37 474.56,-558.37 474.56,-579.87"/>
<text xml:space="preserve" text-anchor="middle" x="446.31" y="-567.32" font-family="PingFang SC" font-size="9.00">locatedAt</text>
</g>
<!-- Document&#45;&gt;op9 -->
<g id="edge19" class="edge">
<title>Document&#45;&gt;op9</title>
<path fill="none" stroke="#555555" d="M585.36,-541.97C551,-548.68 504.44,-557.77 474.89,-563.54"/>
</g>
<!-- op16 -->
<g id="node25" class="node">
<title>op16</title>
<polygon fill="#a9c7f0" stroke="black" stroke-width="0.8" points="557.79,-542.14 487.79,-542.14 487.79,-520.64 557.79,-520.64 557.79,-542.14"/>
<text xml:space="preserve" text-anchor="middle" x="522.79" y="-529.59" font-family="PingFang SC" font-size="9.00">hasEvidence</text>
</g>
<!-- Document&#45;&gt;op16 -->
<g id="edge33" class="edge">
<title>Document&#45;&gt;op16</title>
<path fill="none" stroke="#555555" d="M584.4,-532.49C575.63,-532.33 566.56,-532.17 558.17,-532.02"/>
</g>
<!-- dp10 -->
<g id="node48" class="node">
<title>dp10</title>
<polygon fill="#9bcb6a" stroke="black" stroke-width="0.8" points="756.15,-627.43 702.15,-627.43 702.15,-605.93 756.15,-605.93 756.15,-627.43"/>
<text xml:space="preserve" text-anchor="middle" x="729.15" y="-614.88" font-family="PingFang SC" font-size="9.00">hasTitle</text>
</g>
<!-- Document&#45;&gt;dp10 -->
<g id="edge59" class="edge">
<title>Document&#45;&gt;dp10</title>
<path fill="none" stroke="#555555" d="M664.53,-562.46C682.33,-577.39 702.94,-594.69 716.01,-605.66"/>
</g>
<!-- dp11 -->
<g id="node50" class="node">
<title>dp11</title>
<polygon fill="#9bcb6a" stroke="black" stroke-width="0.8" points="600.94,-668.47 494.19,-668.47 494.19,-646.97 600.94,-646.97 600.94,-668.47"/>
<text xml:space="preserve" text-anchor="middle" x="547.56" y="-655.92" font-family="PingFang SC" font-size="9.00">hasCollectionNumber</text>
</g>
<!-- Document&#45;&gt;dp11 -->
<g id="edge61" class="edge">
<title>Document&#45;&gt;dp11</title>
<path fill="none" stroke="#555555" d="M604.88,-570.97C587.68,-597 565.97,-629.87 554.85,-646.69"/>
</g>
<!-- dp12 -->
<g id="node52" class="node">
<title>dp12</title>
<polygon fill="#9bcb6a" stroke="black" stroke-width="0.8" points="682.94,-660.23 619.69,-660.23 619.69,-638.73 682.94,-638.73 682.94,-660.23"/>
<text xml:space="preserve" text-anchor="middle" x="651.32" y="-647.68" font-family="PingFang SC" font-size="9.00">hasAmount</text>
</g>
<!-- Document&#45;&gt;dp12 -->
<g id="edge63" class="edge">
<title>Document&#45;&gt;dp12</title>
<path fill="none" stroke="#555555" d="M638.04,-577.88C642.12,-599.9 646.71,-624.65 649.29,-638.52"/>
</g>
<!-- Event -->
<g id="node5" class="node">
<title>Event</title>
<ellipse fill="#afcbec" stroke="black" stroke-width="0.8" cx="783.17" cy="-245.63" rx="45" ry="45"/>
<text xml:space="preserve" text-anchor="middle" x="783.17" y="-243.63" font-family="PingFang SC" font-size="10.00">Event</text>
</g>
<!-- op6 -->
<g id="node15" class="node">
<title>op6</title>
<polygon fill="#a9c7f0" stroke="black" stroke-width="0.8" points="936.1,-376.17 865.35,-376.17 865.35,-354.67 936.1,-354.67 936.1,-376.17"/>
<text xml:space="preserve" text-anchor="middle" x="900.72" y="-363.62" font-family="PingFang SC" font-size="9.00">carriedOutBy</text>
</g>
<!-- Event&#45;&gt;op6 -->
<g id="edge13" class="edge">
<title>Event&#45;&gt;op6</title>
<path fill="none" stroke="#555555" d="M814.67,-277.73C839.56,-303.1 872.84,-337.01 889.79,-354.28"/>
</g>
<!-- op7 -->
<g id="node16" class="node">
<title>op7</title>
<polygon fill="#a9c7f0" stroke="black" stroke-width="0.8" points="849.26,-342.89 769.51,-342.89 769.51,-321.39 849.26,-321.39 849.26,-342.89"/>
<text xml:space="preserve" text-anchor="middle" x="809.39" y="-330.34" font-family="PingFang SC" font-size="9.00">mentionsGroup</text>
</g>
<!-- Event&#45;&gt;op7 -->
<g id="edge15" class="edge">
<title>Event&#45;&gt;op7</title>
<path fill="none" stroke="#555555" d="M796.28,-288.88C799.91,-300.88 803.55,-312.88 806.07,-321.18"/>
</g>
<!-- op8 -->
<g id="node17" class="node">
<title>op8</title>
<polygon fill="#a9c7f0" stroke="black" stroke-width="0.8" points="718.08,-232.79 652.58,-232.79 652.58,-211.29 718.08,-211.29 718.08,-232.79"/>
<text xml:space="preserve" text-anchor="middle" x="685.33" y="-220.24" font-family="PingFang SC" font-size="9.00">tookPlaceIn</text>
</g>
<!-- Event&#45;&gt;op8 -->
<g id="edge17" class="edge">
<title>Event&#45;&gt;op8</title>
<path fill="none" stroke="#555555" d="M739.12,-235.01C732.12,-233.32 724.99,-231.6 718.3,-229.99"/>
</g>
<!-- op17 -->
<g id="node26" class="node">
<title>op17</title>
<polygon fill="#a9c7f0" stroke="black" stroke-width="0.8" points="722.12,-320.75 652.12,-320.75 652.12,-299.25 722.12,-299.25 722.12,-320.75"/>
<text xml:space="preserve" text-anchor="middle" x="687.12" y="-308.2" font-family="PingFang SC" font-size="9.00">hasEvidence</text>
</g>
<!-- Event&#45;&gt;op17 -->
<g id="edge35" class="edge">
<title>Event&#45;&gt;op17</title>
<path fill="none" stroke="#555555" d="M745.49,-270.88C730.98,-280.6 715.15,-291.21 703.64,-298.92"/>
</g>
<!-- dp13 -->
<g id="node54" class="node">
<title>dp13</title>
<polygon fill="#9bcb6a" stroke="black" stroke-width="0.8" points="950.09,-240.65 871.84,-240.65 871.84,-219.15 950.09,-219.15 950.09,-240.65"/>
<text xml:space="preserve" text-anchor="middle" x="910.96" y="-228.1" font-family="PingFang SC" font-size="9.00">hasDescription</text>
</g>
<!-- Event&#45;&gt;dp13 -->
<g id="edge65" class="edge">
<title>Event&#45;&gt;dp13</title>
<path fill="none" stroke="#555555" d="M828.23,-240.08C842.45,-238.33 858.05,-236.41 871.83,-234.71"/>
</g>
<!-- dp14 -->
<g id="node56" class="node">
<title>dp14</title>
<polygon fill="#9bcb6a" stroke="black" stroke-width="0.8" points="848.53,-131.76 769.53,-131.76 769.53,-110.26 848.53,-110.26 848.53,-131.76"/>
<text xml:space="preserve" text-anchor="middle" x="809.03" y="-119.21" font-family="PingFang SC" font-size="9.00">hasShownDate</text>
</g>
<!-- Event&#45;&gt;dp14 -->
<g id="edge67" class="edge">
<title>Event&#45;&gt;dp14</title>
<path fill="none" stroke="#555555" d="M792.36,-201.34C797.53,-176.44 803.57,-147.33 806.77,-131.9"/>
</g>
<!-- dp15 -->
<g id="node58" class="node">
<title>dp15</title>
<polygon fill="#9bcb6a" stroke="black" stroke-width="0.8" points="902.98,-171.96 838.23,-171.96 838.23,-150.46 902.98,-150.46 902.98,-171.96"/>
<text xml:space="preserve" text-anchor="middle" x="870.61" y="-159.41" font-family="PingFang SC" font-size="9.00">hasChapter</text>
</g>
<!-- Event&#45;&gt;dp15 -->
<g id="edge69" class="edge">
<title>Event&#45;&gt;dp15</title>
<path fill="none" stroke="#555555" d="M815.73,-214.19C831.07,-199.38 848.38,-182.67 859.38,-172.05"/>
</g>
<!-- DigitalImage -->
<g id="node6" class="node">
<title>DigitalImage</title>
<ellipse fill="#afcbec" stroke="black" stroke-width="0.8" cx="258.84" cy="-647.91" rx="45" ry="45"/>
<text xml:space="preserve" text-anchor="middle" x="258.84" y="-645.91" font-family="PingFang SC" font-size="10.00">DigitalImage</text>
</g>
<!-- op10 -->
<g id="node19" class="node">
<title>op10</title>
<polygon fill="#a9c7f0" stroke="black" stroke-width="0.8" points="262.19,-569.02 205.69,-569.02 205.69,-547.52 262.19,-547.52 262.19,-569.02"/>
<text xml:space="preserve" text-anchor="middle" x="233.94" y="-556.47" font-family="PingFang SC" font-size="9.00">locatedAt</text>
</g>
<!-- DigitalImage&#45;&gt;op10 -->
<g id="edge21" class="edge">
<title>DigitalImage&#45;&gt;op10</title>
<path fill="none" stroke="#555555" d="M246.76,-604.4C243.14,-591.38 239.48,-578.2 237,-569.29"/>
</g>
<!-- op18 -->
<g id="node27" class="node">
<title>op18</title>
<polygon fill="#a9c7f0" stroke="black" stroke-width="0.8" points="399.81,-564.4 329.81,-564.4 329.81,-542.9 399.81,-542.9 399.81,-564.4"/>
<text xml:space="preserve" text-anchor="middle" x="364.81" y="-551.85" font-family="PingFang SC" font-size="9.00">hasEvidence</text>
</g>
<!-- DigitalImage&#45;&gt;op18 -->
<g id="edge37" class="edge">
<title>DigitalImage&#45;&gt;op18</title>
<path fill="none" stroke="#555555" d="M292.66,-617.83C313.01,-599.73 337.72,-577.74 352.31,-564.77"/>
</g>
<!-- dp3 -->
<g id="node34" class="node">
<title>dp3</title>
<polygon fill="#9bcb6a" stroke="black" stroke-width="0.8" points="319.54,-776.35 253.29,-776.35 253.29,-754.85 319.54,-754.85 319.54,-776.35"/>
<text xml:space="preserve" text-anchor="middle" x="286.42" y="-763.8" font-family="PingFang SC" font-size="9.00">hasFileType</text>
</g>
<!-- DigitalImage&#45;&gt;dp3 -->
<g id="edge45" class="edge">
<title>DigitalImage&#45;&gt;dp3</title>
<path fill="none" stroke="#555555" d="M269.19,-692.07C274.5,-714.77 280.55,-740.58 283.88,-754.79"/>
</g>
<!-- dp4 -->
<g id="node36" class="node">
<title>dp4</title>
<polygon fill="#9bcb6a" stroke="black" stroke-width="0.8" points="227.05,-736.78 156.3,-736.78 156.3,-715.28 227.05,-715.28 227.05,-736.78"/>
<text xml:space="preserve" text-anchor="middle" x="191.68" y="-724.23" font-family="PingFang SC" font-size="9.00">hasFileName</text>
</g>
<!-- DigitalImage&#45;&gt;dp4 -->
<g id="edge47" class="edge">
<title>DigitalImage&#45;&gt;dp4</title>
<path fill="none" stroke="#555555" d="M229.58,-681.95C219.4,-693.79 208.68,-706.26 201.25,-714.9"/>
</g>
<!-- dp5 -->
<g id="node38" class="node">
<title>dp5</title>
<polygon fill="#9bcb6a" stroke="black" stroke-width="0.8" points="161.13,-654.36 97.13,-654.36 97.13,-632.86 161.13,-632.86 161.13,-654.36"/>
<text xml:space="preserve" text-anchor="middle" x="129.13" y="-641.81" font-family="PingFang SC" font-size="9.00">hasFileSize</text>
</g>
<!-- DigitalImage&#45;&gt;dp5 -->
<g id="edge49" class="edge">
<title>DigitalImage&#45;&gt;dp5</title>
<path fill="none" stroke="#555555" d="M213.48,-646.41C196.23,-645.84 176.97,-645.2 161.21,-644.67"/>
</g>
<!-- Geometry -->
<g id="node7" class="node">
<title>Geometry</title>
<ellipse fill="#afcbec" stroke="black" stroke-width="0.8" cx="319.27" cy="-481.15" rx="36" ry="36"/>
<text xml:space="preserve" text-anchor="middle" x="319.27" y="-478.58" font-family="PingFang SC" font-size="11.00">Geometry</text>
</g>
<!-- Evidence -->
<g id="node8" class="node">
<title>Evidence</title>
<ellipse fill="#afcbec" stroke="black" stroke-width="0.8" cx="424.93" cy="-458.33" rx="36" ry="36"/>
<text xml:space="preserve" text-anchor="middle" x="424.93" y="-455.76" font-family="PingFang SC" font-size="11.00">Evidence</text>
</g>
<!-- op0&#45;&gt;Place -->
<g id="edge2" class="edge">
<title>op0&#45;&gt;Place</title>
<path fill="none" stroke="#555555" d="M430.27,-254.38C454.81,-256.75 487.09,-259.86 514.17,-262.47"/>
<polygon fill="#555555" stroke="#555555" points="513.69,-264.89 520.89,-263.12 514.16,-260.01 513.69,-264.89"/>
</g>
<!-- op1&#45;&gt;Place -->
<g id="edge4" class="edge">
<title>op1&#45;&gt;Place</title>
<path fill="none" stroke="#555555" d="M682.14,-344.26C671.94,-338.53 659.43,-331.29 648.52,-324.35 636.16,-316.49 623.05,-307.57 611.05,-299.17"/>
<polygon fill="#555555" stroke="#555555" points="612.5,-297.2 605.37,-295.17 609.68,-301.2 612.5,-297.2"/>
</g>
<!-- op2&#45;&gt;Place -->
<g id="edge6" class="edge">
<title>op2&#45;&gt;Place</title>
<path fill="none" stroke="#555555" d="M600.14,-381.73C596.11,-367.64 588.89,-342.41 582.26,-319.25"/>
<polygon fill="#555555" stroke="#555555" points="584.64,-318.67 580.36,-312.62 579.93,-320.02 584.64,-318.67"/>
</g>
<!-- op3&#45;&gt;Actor -->
<g id="edge8" class="edge">
<title>op3&#45;&gt;Actor</title>
<path fill="none" stroke="#555555" d="M747.07,-499.88C755.77,-492.4 767.85,-482 779.68,-471.82"/>
<polygon fill="#555555" stroke="#555555" points="780.97,-473.95 784.68,-467.52 777.78,-470.23 780.97,-473.95"/>
</g>
<!-- op4&#45;&gt;Actor -->
<g id="edge10" class="edge">
<title>op4&#45;&gt;Actor</title>
<path fill="none" stroke="#555555" d="M764.6,-537.24C767.57,-533.48 770.77,-529.19 773.43,-525.08 781.58,-512.49 789.55,-498.32 796.53,-485.09"/>
<polygon fill="#555555" stroke="#555555" points="798.54,-486.54 799.6,-479.2 794.19,-484.28 798.54,-486.54"/>
</g>
<!-- op5&#45;&gt;Place -->
<g id="edge12" class="edge">
<title>op5&#45;&gt;Place</title>
<path fill="none" stroke="#555555" d="M530.77,-419.44C535.64,-399.29 546.32,-355.13 554.91,-319.6"/>
<polygon fill="#555555" stroke="#555555" points="557.2,-320.55 556.47,-313.17 552.44,-319.4 557.2,-320.55"/>
</g>
<!-- op6&#45;&gt;Actor -->
<g id="edge14" class="edge">
<title>op6&#45;&gt;Actor</title>
<path fill="none" stroke="#555555" d="M888.45,-376.33C880.7,-383.21 870.21,-392.53 859.76,-401.81"/>
<polygon fill="#555555" stroke="#555555" points="858.38,-399.76 854.77,-406.24 861.63,-403.42 858.38,-399.76"/>
</g>
<!-- op7&#45;&gt;Actor -->
<g id="edge16" class="edge">
<title>op7&#45;&gt;Actor</title>
<path fill="none" stroke="#555555" d="M810.47,-342.99C811.48,-352.99 813.04,-368.62 814.61,-384.29"/>
<polygon fill="#555555" stroke="#555555" points="812.15,-384.23 815.28,-390.95 817.02,-383.74 812.15,-384.23"/>
</g>
<!-- op8&#45;&gt;Place -->
<g id="edge18" class="edge">
<title>op8&#45;&gt;Place</title>
<path fill="none" stroke="#555555" d="M656.5,-233.19C644.77,-237.73 630.86,-243.11 617.56,-248.25"/>
<polygon fill="#555555" stroke="#555555" points="616.88,-245.89 611.24,-250.7 618.65,-250.46 616.88,-245.89"/>
</g>
<!-- op9&#45;&gt;Geometry -->
<g id="edge20" class="edge">
<title>op9&#45;&gt;Geometry</title>
<path fill="none" stroke="#555555" d="M430.42,-558.07C422.34,-552.44 412.35,-545.5 403.41,-539.3 387.72,-528.42 370.36,-516.43 355.51,-506.17"/>
<polygon fill="#555555" stroke="#555555" points="357.27,-504.41 350.12,-502.45 354.49,-508.44 357.27,-504.41"/>
</g>
<!-- op10&#45;&gt;Geometry -->
<g id="edge22" class="edge">
<title>op10&#45;&gt;Geometry</title>
<path fill="none" stroke="#555555" d="M246.17,-547.22C256.56,-537.83 271.97,-523.9 285.97,-511.24"/>
<polygon fill="#555555" stroke="#555555" points="287.61,-513.07 291.16,-506.56 284.32,-509.43 287.61,-513.07"/>
</g>
<!-- op11&#45;&gt;Geometry -->
<g id="edge24" class="edge">
<title>op11&#45;&gt;Geometry</title>
<path fill="none" stroke="#555555" d="M240.34,-417.53C251.96,-426.89 269.16,-440.76 284.54,-453.16"/>
<polygon fill="#555555" stroke="#555555" points="282.84,-454.93 289.82,-457.41 285.91,-451.11 282.84,-454.93"/>
</g>
<!-- op12&#45;&gt;Geometry -->
<g id="edge26" class="edge">
<title>op12&#45;&gt;Geometry</title>
<path fill="none" stroke="#555555" d="M408.73,-369.22C395.02,-386.38 367.81,-420.42 346.99,-446.47"/>
<polygon fill="#555555" stroke="#555555" points="345.24,-444.73 342.79,-451.73 349.07,-447.79 345.24,-444.73"/>
</g>
<!-- op13&#45;&gt;Evidence -->
<g id="edge28" class="edge">
<title>op13&#45;&gt;Evidence</title>
<path fill="none" stroke="#555555" d="M489.88,-353.99C480.4,-369.23 462.85,-397.42 448.38,-420.66"/>
<polygon fill="#555555" stroke="#555555" points="446.42,-419.17 444.8,-426.41 450.58,-421.76 446.42,-419.17"/>
</g>
<!-- op14&#45;&gt;Evidence -->
<g id="edge30" class="edge">
<title>op14&#45;&gt;Evidence</title>
<path fill="none" stroke="#555555" d="M349.48,-388.83C360.48,-398.97 377.42,-414.58 392.47,-428.43"/>
<polygon fill="#555555" stroke="#555555" points="390.42,-429.88 397.23,-432.82 393.74,-426.27 390.42,-429.88"/>
</g>
<!-- op15&#45;&gt;Evidence -->
<g id="edge32" class="edge">
<title>op15&#45;&gt;Evidence</title>
<path fill="none" stroke="#555555" d="M618.79,-457.56C578.65,-457.72 513.06,-457.98 469.45,-458.15"/>
<polygon fill="#555555" stroke="#555555" points="469.54,-455.7 462.55,-458.18 469.56,-460.6 469.54,-455.7"/>
</g>
<!-- op16&#45;&gt;Evidence -->
<g id="edge34" class="edge">
<title>op16&#45;&gt;Evidence</title>
<path fill="none" stroke="#555555" d="M507.93,-520.29C495.28,-510.85 476.6,-496.9 460.16,-484.63"/>
<polygon fill="#555555" stroke="#555555" points="462.04,-482.98 454.96,-480.75 459.11,-486.9 462.04,-482.98"/>
</g>
<!-- op17&#45;&gt;Evidence -->
<g id="edge36" class="edge">
<title>op17&#45;&gt;Evidence</title>
<path fill="none" stroke="#555555" d="M659.24,-321.1C617.21,-338.42 535.9,-374.25 473.4,-416.02 468.05,-419.6 462.64,-423.71 457.49,-427.93"/>
<polygon fill="#555555" stroke="#555555" points="456.04,-425.95 452.27,-432.34 459.2,-429.7 456.04,-425.95"/>
</g>
<!-- op18&#45;&gt;Evidence -->
<g id="edge38" class="edge">
<title>op18&#45;&gt;Evidence</title>
<path fill="none" stroke="#555555" d="M371.71,-542.72C378.88,-531.34 390.54,-512.86 401.11,-496.1"/>
<polygon fill="#555555" stroke="#555555" points="403.09,-497.55 404.75,-490.32 398.94,-494.94 403.09,-497.55"/>
</g>
<!-- yb0 -->
<g id="node29" class="node">
<title>yb0</title>
<polygon fill="#ffcc33" stroke="black" stroke-width="0.8" points="101.19,-197.51 61.94,-197.51 61.94,-176.01 101.19,-176.01 101.19,-197.51"/>
<text xml:space="preserve" text-anchor="middle" x="81.56" y="-184.96" font-family="PingFang SC" font-size="9.00">string</text>
</g>
<!-- dp0&#45;&gt;yb0 -->
<g id="edge40" class="edge">
<title>dp0&#45;&gt;yb0</title>
<path fill="none" stroke="#555555" d="M149.87,-276.04C136.59,-258.69 110.84,-225.02 95.02,-204.36"/>
<polygon fill="#555555" stroke="#555555" points="97,-202.91 90.8,-198.84 93.11,-205.89 97,-202.91"/>
</g>
<!-- yb1 -->
<g id="node31" class="node">
<title>yb1</title>
<polygon fill="#ffcc33" stroke="black" stroke-width="0.8" points="220.5,-64.89 181.25,-64.89 181.25,-43.39 220.5,-43.39 220.5,-64.89"/>
<text xml:space="preserve" text-anchor="middle" x="200.88" y="-52.34" font-family="PingFang SC" font-size="9.00">string</text>
</g>
<!-- dp1&#45;&gt;yb1 -->
<g id="edge42" class="edge">
<title>dp1&#45;&gt;yb1</title>
<path fill="none" stroke="#555555" d="M242.98,-151.98C235.04,-133.53 218.78,-95.75 208.95,-72.91"/>
<polygon fill="#555555" stroke="#555555" points="211.27,-72.09 206.25,-66.63 206.77,-74.03 211.27,-72.09"/>
</g>
<!-- yb2 -->
<g id="node33" class="node">
<title>yb2</title>
<polygon fill="#ffcc33" stroke="black" stroke-width="0.8" points="76.55,-256.25 37.3,-256.25 37.3,-234.75 76.55,-234.75 76.55,-256.25"/>
<text xml:space="preserve" text-anchor="middle" x="56.93" y="-243.7" font-family="PingFang SC" font-size="9.00">string</text>
</g>
<!-- dp2&#45;&gt;yb2 -->
<g id="edge44" class="edge">
<title>dp2&#45;&gt;yb2</title>
<path fill="none" stroke="#555555" d="M149.68,-243.26C130.35,-243.73 104.72,-244.35 85.31,-244.82"/>
<polygon fill="#555555" stroke="#555555" points="85.32,-242.37 78.38,-244.98 85.44,-247.26 85.32,-242.37"/>
</g>
<!-- yb3 -->
<g id="node35" class="node">
<title>yb3</title>
<polygon fill="#ffcc33" stroke="black" stroke-width="0.8" points="293.03,-889.34 253.78,-889.34 253.78,-867.84 293.03,-867.84 293.03,-889.34"/>
<text xml:space="preserve" text-anchor="middle" x="273.4" y="-876.79" font-family="PingFang SC" font-size="9.00">string</text>
</g>
<!-- dp3&#45;&gt;yb3 -->
<g id="edge46" class="edge">
<title>dp3&#45;&gt;yb3</title>
<path fill="none" stroke="#555555" d="M285.17,-776.44C282.97,-795.54 278.37,-835.44 275.62,-859.33"/>
<polygon fill="#555555" stroke="#555555" points="273.2,-858.89 274.84,-866.12 278.07,-859.45 273.2,-858.89"/>
</g>
<!-- yb4 -->
<g id="node37" class="node">
<title>yb4</title>
<polygon fill="#ffcc33" stroke="black" stroke-width="0.8" points="138.75,-820.66 99.5,-820.66 99.5,-799.16 138.75,-799.16 138.75,-820.66"/>
<text xml:space="preserve" text-anchor="middle" x="119.13" y="-808.11" font-family="PingFang SC" font-size="9.00">string</text>
</g>
<!-- dp4&#45;&gt;yb4 -->
<g id="edge48" class="edge">
<title>dp4&#45;&gt;yb4</title>
<path fill="none" stroke="#555555" d="M182.19,-737C169.92,-751.19 148.4,-776.07 133.95,-792.77"/>
<polygon fill="#555555" stroke="#555555" points="132.33,-790.9 129.61,-797.8 136.04,-794.11 132.33,-790.9"/>
</g>
<!-- yb5 -->
<g id="node39" class="node">
<title>yb5</title>
<polygon fill="#ffcc33" stroke="black" stroke-width="0.8" points="39.25,-680.23 0,-680.23 0,-658.73 39.25,-658.73 39.25,-680.23"/>
<text xml:space="preserve" text-anchor="middle" x="19.62" y="-667.68" font-family="PingFang SC" font-size="9.00">string</text>
</g>
<!-- dp5&#45;&gt;yb5 -->
<g id="edge50" class="edge">
<title>dp5&#45;&gt;yb5</title>
<path fill="none" stroke="#555555" d="M96.87,-651.23C81.22,-654.93 62.6,-659.33 47.57,-662.88"/>
<polygon fill="#555555" stroke="#555555" points="47.35,-660.42 41.1,-664.41 48.47,-665.18 47.35,-660.42"/>
</g>
<!-- yb6 -->
<g id="node41" class="node">
<title>yb6</title>
<polygon fill="#ffcc33" stroke="black" stroke-width="0.8" points="471.53,-70.71 432.28,-70.71 432.28,-49.21 471.53,-49.21 471.53,-70.71"/>
<text xml:space="preserve" text-anchor="middle" x="451.91" y="-58.16" font-family="PingFang SC" font-size="9.00">string</text>
</g>
<!-- dp6&#45;&gt;yb6 -->
<g id="edge52" class="edge">
<title>dp6&#45;&gt;yb6</title>
<path fill="none" stroke="#555555" d="M529.57,-157.63C514.66,-138.89 483.87,-100.16 465.86,-77.51"/>
<polygon fill="#555555" stroke="#555555" points="467.93,-76.17 461.66,-72.22 464.1,-79.22 467.93,-76.17"/>
</g>
<!-- yb7 -->
<g id="node43" class="node">
<title>yb7</title>
<polygon fill="#ffcc33" stroke="black" stroke-width="0.8" points="531.13,-55.98 491.88,-55.98 491.88,-34.48 531.13,-34.48 531.13,-55.98"/>
<text xml:space="preserve" text-anchor="middle" x="511.5" y="-43.43" font-family="PingFang SC" font-size="9.00">string</text>
</g>
<!-- dp7&#45;&gt;yb7 -->
<g id="edge54" class="edge">
<title>dp7&#45;&gt;yb7</title>
<path fill="none" stroke="#555555" d="M467.12,-180.42C475.25,-155.66 495.08,-95.25 505.26,-64.26"/>
<polygon fill="#555555" stroke="#555555" points="507.53,-65.2 507.38,-57.79 502.87,-63.67 507.53,-65.2"/>
</g>
<!-- yb8 -->
<g id="node45" class="node">
<title>yb8</title>
<polygon fill="#ffcc33" stroke="black" stroke-width="0.8" points="641.46,-51.86 602.21,-51.86 602.21,-30.36 641.46,-30.36 641.46,-51.86"/>
<text xml:space="preserve" text-anchor="middle" x="621.84" y="-39.31" font-family="PingFang SC" font-size="9.00">string</text>
</g>
<!-- dp8&#45;&gt;yb8 -->
<g id="edge56" class="edge">
<title>dp8&#45;&gt;yb8</title>
<path fill="none" stroke="#555555" d="M610.2,-161.65C612.35,-139.44 617.29,-88.2 620,-60.21"/>
<polygon fill="#555555" stroke="#555555" points="622.41,-60.71 620.64,-53.51 617.53,-60.24 622.41,-60.71"/>
</g>
<!-- yb9 -->
<g id="node47" class="node">
<title>yb9</title>
<polygon fill="#ffcc33" stroke="black" stroke-width="0.8" points="1054.02,-570.73 1014.77,-570.73 1014.77,-549.23 1054.02,-549.23 1054.02,-570.73"/>
<text xml:space="preserve" text-anchor="middle" x="1034.39" y="-558.18" font-family="PingFang SC" font-size="9.00">string</text>
</g>
<!-- dp9&#45;&gt;yb9 -->
<g id="edge58" class="edge">
<title>dp9&#45;&gt;yb9</title>
<path fill="none" stroke="#555555" d="M958.39,-523.89C972.94,-530.8 991.73,-539.73 1007,-546.97"/>
<polygon fill="#555555" stroke="#555555" points="1005.87,-549.15 1013.25,-549.94 1007.97,-544.72 1005.87,-549.15"/>
</g>
<!-- yb10 -->
<g id="node49" class="node">
<title>yb10</title>
<polygon fill="#ffcc33" stroke="black" stroke-width="0.8" points="835.58,-722.01 796.33,-722.01 796.33,-700.51 835.58,-700.51 835.58,-722.01"/>
<text xml:space="preserve" text-anchor="middle" x="815.95" y="-709.46" font-family="PingFang SC" font-size="9.00">string</text>
</g>
<!-- dp10&#45;&gt;yb10 -->
<g id="edge60" class="edge">
<title>dp10&#45;&gt;yb10</title>
<path fill="none" stroke="#555555" d="M739.1,-627.53C754.07,-643.83 782.49,-674.8 800.26,-694.16"/>
<polygon fill="#555555" stroke="#555555" points="798.28,-695.63 804.82,-699.13 801.89,-692.32 798.28,-695.63"/>
</g>
<!-- yb11 -->
<g id="node51" class="node">
<title>yb11</title>
<polygon fill="#ffcc33" stroke="black" stroke-width="0.8" points="597.9,-790.92 558.65,-790.92 558.65,-769.42 597.9,-769.42 597.9,-790.92"/>
<text xml:space="preserve" text-anchor="middle" x="578.28" y="-778.37" font-family="PingFang SC" font-size="9.00">string</text>
</g>
<!-- dp11&#45;&gt;yb11 -->
<g id="edge62" class="edge">
<title>dp11&#45;&gt;yb11</title>
<path fill="none" stroke="#555555" d="M550.29,-668.59C555.51,-689.41 566.99,-735.18 573.51,-761.16"/>
<polygon fill="#555555" stroke="#555555" points="571.07,-761.49 575.15,-767.69 575.82,-760.3 571.07,-761.49"/>
</g>
<!-- yb12 -->
<g id="node53" class="node">
<title>yb12</title>
<polygon fill="#ffcc33" stroke="black" stroke-width="0.8" points="728.85,-774.44 679.85,-774.44 679.85,-752.94 728.85,-752.94 728.85,-774.44"/>
<text xml:space="preserve" text-anchor="middle" x="704.35" y="-761.89" font-family="PingFang SC" font-size="9.00">decimal</text>
</g>
<!-- dp12&#45;&gt;yb12 -->
<g id="edge64" class="edge">
<title>dp12&#45;&gt;yb12</title>
<path fill="none" stroke="#555555" d="M656.4,-660.43C665.49,-679.99 684.59,-721.14 695.75,-745.17"/>
<polygon fill="#555555" stroke="#555555" points="693.39,-745.92 698.56,-751.24 697.84,-743.85 693.39,-745.92"/>
</g>
<!-- yb13 -->
<g id="node55" class="node">
<title>yb13</title>
<polygon fill="#ffcc33" stroke="black" stroke-width="0.8" points="1052.9,-219.03 1013.65,-219.03 1013.65,-197.53 1052.9,-197.53 1052.9,-219.03"/>
<text xml:space="preserve" text-anchor="middle" x="1033.28" y="-206.48" font-family="PingFang SC" font-size="9.00">string</text>
</g>
<!-- dp13&#45;&gt;yb13 -->
<g id="edge66" class="edge">
<title>dp13&#45;&gt;yb13</title>
<path fill="none" stroke="#555555" d="M950.34,-222.94C968.3,-219.77 989.14,-216.08 1005.44,-213.2"/>
<polygon fill="#555555" stroke="#555555" points="1005.55,-215.67 1012.02,-212.04 1004.7,-210.84 1005.55,-215.67"/>
</g>
<!-- yb14 -->
<g id="node57" class="node">
<title>yb14</title>
<polygon fill="#ffcc33" stroke="black" stroke-width="0.8" points="874.62,-21.5 835.37,-21.5 835.37,0 874.62,0 874.62,-21.5"/>
<text xml:space="preserve" text-anchor="middle" x="855" y="-8.95" font-family="PingFang SC" font-size="9.00">string</text>
</g>
<!-- dp14&#45;&gt;yb14 -->
<g id="edge68" class="edge">
<title>dp14&#45;&gt;yb14</title>
<path fill="none" stroke="#555555" d="M813.6,-110.04C821.45,-91.21 837.56,-52.57 847.21,-29.44"/>
<polygon fill="#555555" stroke="#555555" points="849.42,-30.48 849.86,-23.08 844.9,-28.6 849.42,-30.48"/>
</g>
<!-- yb15 -->
<g id="node59" class="node">
<title>yb15</title>
<polygon fill="#ffcc33" stroke="black" stroke-width="0.8" points="979.62,-92.02 940.37,-92.02 940.37,-70.52 979.62,-70.52 979.62,-92.02"/>
<text xml:space="preserve" text-anchor="middle" x="960" y="-79.47" font-family="PingFang SC" font-size="9.00">string</text>
</g>
<!-- dp15&#45;&gt;yb15 -->
<g id="edge70" class="edge">
<title>dp15&#45;&gt;yb15</title>
<path fill="none" stroke="#555555" d="M883.04,-150.1C898.25,-136.5 924.13,-113.35 941.64,-97.69"/>
<polygon fill="#555555" stroke="#555555" points="942.96,-99.79 946.55,-93.3 939.69,-96.14 942.96,-99.79"/>
</g>
</g>
</svg>
